<?xml version="1.0" encoding="utf-8"?>
<!-- Generator: Adobe Illustrator 21.0.0, SVG Export Plug-In . SVG Version: 6.00 Build 0)  -->
<svg version="1.1" id="Capa_1" xmlns="http://www.w3.org/2000/svg" xmlns:xlink="http://www.w3.org/1999/xlink" x="0px" y="0px"
	 viewBox="0 0 368 136" style="enable-background:new 0 0 368 136;" xml:space="preserve">
<style type="text/css">
	.st0{fill:#2C77D1;}
	.st1{fill:#020202;}
</style>
<g>
	<g>
		<g>
			<polygon points="367.5,82.4 352.4,82.4 352.4,43.6 313.6,43.6 313.6,28.5 367.5,28.5 			"/>
			<polygon points="352.4,97.5 298.5,97.5 298.5,43.6 313.6,43.6 313.6,82.4 352.4,82.4 			"/>
		</g>
		
			<rect x="325.2" y="55.2" transform="matrix(1.780038e-09 1 -1 1.780038e-09 395.9957 -269.9957)" class="st0" width="15.6" height="15.6"/>
	</g>
	<g>
		<path class="st1" d="M38.4,94.2c-1.8,1-3.8,1.8-5.9,2.4c-2.1,0.6-4.3,0.9-6.6,0.9c-3.8,0-7.3-0.7-10.4-2.2c-3.1-1.5-5.8-3.4-8-5.8
			c-2.2-2.4-3.9-5.2-5.2-8.3c-1.2-3.1-1.8-6.3-1.8-9.7c0-3.4,0.6-6.6,1.9-9.7c1.3-3.1,3.1-5.9,5.3-8.3c2.3-2.4,5-4.3,8.1-5.7
			c3.1-1.4,6.5-2.1,10.2-2.1c3.8,0,7.3,0.8,10.4,2.3c3.1,1.5,5.8,3.5,8,6c2.2,2.5,3.9,5.2,5.1,8.4c1.2,3.1,1.8,6.3,1.8,9.5
			c0,3.3-0.6,6.4-1.7,9.4c-1.2,3-2.8,5.7-4.9,8l7.4,8.1H41L38.4,94.2z M25.9,86.9c1.9,0,3.6-0.3,5-0.9l-8.2-9.1h11.1l3.2,3.5
			c0.8-1.3,1.3-2.8,1.7-4.3c0.4-1.5,0.6-3.1,0.6-4.7c0-2-0.3-3.9-0.9-5.7c-0.6-1.9-1.4-3.5-2.6-4.9c-1.2-1.4-2.6-2.6-4.2-3.4
			C30,56.5,28.1,56,25.9,56c-2.3,0-4.2,0.4-5.9,1.3c-1.7,0.9-3.1,2.1-4.2,3.5c-1.1,1.5-2,3.1-2.5,5c-0.6,1.9-0.8,3.7-0.8,5.7
			c0,2,0.3,3.9,0.9,5.7c0.6,1.9,1.4,3.5,2.6,4.9c1.1,1.4,2.5,2.6,4.2,3.4C21.9,86.5,23.8,86.9,25.9,86.9z"/>
		<path class="st1" d="M80.2,87c2,0,3.7-0.4,5.1-1.3c1.4-0.8,2.5-2,3.4-3.4c0.9-1.4,1.5-3,1.8-4.8c0.4-1.8,0.5-3.6,0.5-5.5V45.9
			h11.8v26.2c0,3.6-0.4,6.9-1.3,10c-0.9,3.1-2.3,5.8-4.1,8.1c-1.9,2.3-4.2,4.1-7.1,5.4c-2.9,1.3-6.3,2-10.2,2
			c-4.1,0-7.6-0.7-10.5-2.1c-2.9-1.4-5.2-3.3-7-5.6c-1.8-2.3-3.1-5-4-8.1c-0.8-3.1-1.3-6.3-1.3-9.7V45.9h11.8v26.2
			c0,2,0.2,3.8,0.6,5.6c0.4,1.8,1,3.4,1.9,4.8c0.9,1.4,2,2.5,3.4,3.3C76.5,86.6,78.2,87,80.2,87z"/>
		<path class="st1" d="M112.1,97.1V45.9h11.8v51.2H112.1z"/>
		<path class="st1" d="M145.5,67.8v29.3h-11.8V45.9h9.2L166.8,76V45.9h11.8v51.2h-9.5L145.5,67.8z"/>
		<path class="st1" d="M227.5,56.3h-15.6v40.8h-11.8V56.3h-15.7V45.9h43.1V56.3z"/>
		<path class="st1" d="M253.3,97.5c-3.8,0-7.3-0.7-10.4-2.2c-3.1-1.5-5.8-3.5-8-5.9c-2.2-2.4-3.9-5.2-5.2-8.3
			c-1.2-3.1-1.8-6.3-1.8-9.7c0-3.4,0.6-6.6,1.9-9.7c1.3-3.1,3.1-5.9,5.3-8.3c2.3-2.4,5-4.3,8.1-5.7c3.1-1.4,6.5-2.1,10.2-2.1
			c3.8,0,7.3,0.7,10.4,2.2c3.1,1.5,5.8,3.5,8,5.9c2.2,2.5,3.9,5.2,5.1,8.4c1.2,3.1,1.8,6.3,1.8,9.5c0,3.4-0.6,6.6-1.9,9.7
			c-1.3,3.1-3,5.9-5.3,8.3c-2.3,2.4-5,4.3-8.1,5.7C260.4,96.8,257,97.5,253.3,97.5z M240,71.6c0,2,0.3,3.9,0.9,5.7
			c0.6,1.9,1.4,3.5,2.6,4.9c1.1,1.4,2.5,2.6,4.2,3.5c1.7,0.9,3.6,1.3,5.8,1.3c2.3,0,4.2-0.5,5.9-1.4c1.7-0.9,3.1-2.1,4.2-3.6
			c1.1-1.5,1.9-3.1,2.5-5c0.6-1.9,0.8-3.7,0.8-5.7c0-2-0.3-3.9-0.9-5.7c-0.6-1.9-1.4-3.5-2.6-4.9c-1.2-1.4-2.6-2.5-4.2-3.4
			c-1.7-0.8-3.6-1.3-5.7-1.3c-2.3,0-4.2,0.4-5.9,1.3c-1.7,0.9-3.1,2.1-4.2,3.5c-1.1,1.4-2,3.1-2.5,4.9C240.3,67.7,240,69.6,240,71.6
			z"/>
	</g>
</g>
</svg>
