<?xml version="1.0" encoding="utf-8"?>
<!-- Generator: Adobe Illustrator 21.0.0, SVG Export Plug-In . SVG Version: 6.00 Build 0)  -->
<svg version="1.1" id="Capa_1" xmlns="http://www.w3.org/2000/svg" xmlns:xlink="http://www.w3.org/1999/xlink" x="0px" y="0px"
	 viewBox="0 0 140 140" style="enable-background:new 0 0 140 140;" xml:space="preserve">
<style type="text/css">
	.st0{fill:#A179DC;}
	.st1{fill:#280068;}
	.st2{fill:#390091;}
	.st3{fill:#FFFFFF;}
</style>
<g>
	<path class="st0" d="M130.5,42c0-2.3-0.5-4.3-1.5-6c-1-1.7-2.4-3.1-4.4-4.3c-16.1-9.3-32.2-18.5-48.3-27.8C72,1.3,67.8,1.4,63.4,4
		C57,7.7,24.9,26.1,15.4,31.7C11.4,34,9.5,37.4,9.5,42c0,18.7,0,37.4,0,56c0,2.2,0.5,4.2,1.4,5.9c1,1.8,2.4,3.2,4.4,4.4
		c9.6,5.5,41.7,23.9,48.1,27.7c4.3,2.5,8.5,2.6,12.9,0.1c16.1-9.3,32.2-18.6,48.3-27.8c2-1.2,3.5-2.6,4.4-4.4
		c0.9-1.7,1.4-3.7,1.4-5.9C130.5,98,130.5,60.7,130.5,42"/>
	<path class="st1" d="M70.2,69.8l-59.3,34.1c1,1.8,2.4,3.2,4.4,4.4c9.6,5.5,41.7,23.9,48.1,27.7c4.3,2.5,8.5,2.6,12.9,0.1
		c16.1-9.3,32.2-18.6,48.3-27.8c2-1.2,3.5-2.6,4.4-4.4L70.2,69.8"/>
	<path class="st2" d="M130.5,42c0-2.3-0.5-4.3-1.5-6L70.2,69.8l58.9,34.1c0.9-1.7,1.4-3.7,1.4-5.9C130.5,98,130.5,60.7,130.5,42"/>
	<path class="st3" d="M105.1,57.1v6.4h6.4v-6.4h3.2v6.4h6.4v3.2h-6.4V73h6.4v3.2h-6.4v6.4h-3.2v-6.4h-6.4v6.4h-3.2v-6.4h-6.4V73h6.4
		v-6.4h-6.4v-3.2h6.4v-6.4H105.1z M111.5,66.6h-6.4V73h6.4V66.6z"/>
	<path class="st3" d="M70.3,25c16.6,0,31.2,9,38.9,22.5l-0.1-0.1L89.6,58.6c-3.9-6.5-10.9-10.9-19-11l-0.3,0
		c-12.4,0-22.4,10-22.4,22.4c0,4,1.1,7.8,3,11.1c3.9,6.7,11.1,11.3,19.4,11.3c8.4,0,15.7-4.6,19.5-11.4l-0.1,0.2l19.5,11.3
		c-7.7,13.3-22,22.3-38.5,22.5l-0.5,0c-16.7,0-31.3-9.1-39-22.6c-3.8-6.6-6-14.2-6-22.4C25.3,45.2,45.5,25,70.3,25z"/>
</g>
</svg>
