<?xml version="1.0" encoding="utf-8"?>
<!-- Generator: Adobe Illustrator 21.0.0, SVG Export Plug-In . SVG Version: 6.00 Build 0)  -->
<svg version="1.1" id="Capa_1" xmlns="http://www.w3.org/2000/svg" xmlns:xlink="http://www.w3.org/1999/xlink" x="0px" y="0px"
	 viewBox="0 0 140 140" style="enable-background:new 0 0 140 140;" xml:space="preserve">
<style type="text/css">
	.st0{fill:#00ACD7;}
</style>
<g>
	<g>
		<g>
			<g>
				<path class="st0" d="M10.9,59.6c-0.4,0-0.5-0.2-0.3-0.5l1.2-1.5c0.2-0.3,0.7-0.5,1.1-0.5l23.9,0c0.4,0,0.5,0.3,0.3,0.6l-0.9,1.4
					c-0.2,0.3-0.7,0.6-1,0.6L10.9,59.6z"/>
			</g>
		</g>
	</g>
	<g>
		<g>
			<g>
				<path class="st0" d="M0.7,65.9c-0.4,0-0.5-0.2-0.3-0.5l1.2-1.5c0.2-0.3,0.7-0.5,1.1-0.5l30.6,0c0.4,0,0.6,0.3,0.5,0.6l-0.4,1.3
					c-0.1,0.4-0.5,0.6-0.9,0.6L0.7,65.9z"/>
			</g>
		</g>
	</g>
	<g>
		<g>
			<g>
				<path class="st0" d="M17.2,72.1c-0.4,0-0.5-0.3-0.3-0.6l0.8-1.4c0.2-0.3,0.6-0.6,1-0.6l13.2,0c0.4,0,0.6,0.3,0.6,0.7l-0.1,1.2
					c0,0.4-0.4,0.7-0.7,0.7L17.2,72.1z"/>
			</g>
		</g>
	</g>
	<g>
		<g id="CXHf1q_3_">
			<g>
				<g>
					<path class="st0" d="M87.6,58.4c-4.3,1.1-7.2,1.9-11.4,3c-1,0.3-1.1,0.4-2-0.7c-1-1.2-1.8-1.9-3.2-2.6c-4.3-2.1-8.5-1.5-12.3,1
						c-4.6,3-7,7.4-7,13c0.1,5.4,3.8,10,9.2,10.7c4.6,0.6,8.5-1,11.6-4.5c0.6-0.7,1.2-1.6,1.9-2.5c-2.5,0-5.5,0-13.1,0
						c-1.4,0-1.8-0.9-1.3-2c0.9-2.1,2.5-5.7,3.5-7.4c0.2-0.4,0.7-1.1,1.7-1.1c3.5,0,16.3,0,24.8,0c-0.1,1.8-0.1,3.7-0.4,5.5
						c-0.7,4.9-2.6,9.4-5.6,13.4c-4.9,6.5-11.3,10.5-19.4,11.6c-6.7,0.9-12.9-0.4-18.3-4.5c-5-3.8-7.9-8.9-8.7-15.1
						c-0.9-7.4,1.3-14.1,5.8-19.9c4.8-6.3,11.2-10.3,19.1-11.8c6.4-1.2,12.5-0.4,18,3.3c3.6,2.4,6.2,5.7,7.9,9.6
						C88.7,57.9,88.4,58.2,87.6,58.4z"/>
				</g>
				<g>
					<path class="st0" d="M110.1,96.1c-6.2-0.1-11.9-1.9-16.6-6c-4-3.5-6.5-7.9-7.4-13.1c-1.2-7.7,0.9-14.5,5.5-20.6
						c5-6.5,11-9.9,19-11.4c6.9-1.2,13.5-0.5,19.4,3.5c5.4,3.7,8.7,8.6,9.6,15.2c1.2,9.2-1.5,16.7-7.8,23.1
						c-4.5,4.6-10,7.5-16.3,8.7C113.8,95.8,111.9,95.9,110.1,96.1z M126.4,68.6c-0.1-0.9-0.1-1.6-0.2-2.3
						c-1.2-6.7-7.4-10.5-13.9-9.1c-6.4,1.4-10.4,5.4-11.9,11.8c-1.2,5.3,1.4,10.7,6.2,12.9c3.7,1.7,7.5,1.4,11.1-0.4
						C123.1,78.8,126,74.4,126.4,68.6z"/>
				</g>
			</g>
		</g>
	</g>
</g>
</svg>
