<?xml version="1.0" encoding="utf-8"?>
<!-- Generator: Adobe Illustrator 21.0.0, SVG Export Plug-In . SVG Version: 6.00 Build 0)  -->
<svg version="1.1" id="Capa_1" xmlns="http://www.w3.org/2000/svg" xmlns:xlink="http://www.w3.org/1999/xlink" x="0px" y="0px"
	 viewBox="0 0 140 140" style="enable-background:new 0 0 140 140;" xml:space="preserve">
<style type="text/css">
	.st0{fill:#E34E26;}
	.st1{fill:#EF662A;}
	.st2{fill:#FFFFFF;}
	.st3{fill:#EBEBEB;}
</style>
<g>
	<g>
		<g>
			<g>
				<path d="M35.1,9.5h5.5v5.4h5V9.5H51v16.3h-5.5v-5.5h-5v5.5h-5.5L35.1,9.5L35.1,9.5z"/>
				<path d="M58.2,14.9h-4.8V9.5h15.1v5.4h-4.8v10.9h-5.5L58.2,14.9L58.2,14.9z"/>
				<path d="M70.9,9.5h5.7l3.5,5.7l3.5-5.7h5.7v16.3h-5.4v-8.1l-3.8,5.8H80l-3.8-5.8v8.1h-5.3V9.5z"/>
				<path d="M92,9.5h5.5v10.9h7.7v5.4H92V9.5z"/>
			</g>
		</g>
	</g>
	<g id="Guides_to_delete">
		<g>
			<polygon class="st0" points="34.8,120.8 27,32.9 113,32.9 105.2,120.8 70,130.5 			"/>
			<polygon class="st1" points="70,40.1 70,123.1 98.4,115.2 105.2,40.1 			"/>
			<polygon class="st2" points="43,50.9 45.9,83.5 83.3,83.5 82,97.4 70,100.7 58,97.4 57.2,88.5 46.4,88.5 47.9,105.8 70,111.9 
				92.1,105.8 95,72.7 55.8,72.7 54.8,61.7 96,61.7 96,61.7 97,50.9 			"/>
			<g>
				<polygon class="st3" points="70,50.9 43,50.9 45.9,83.5 70,83.5 70,72.7 55.8,72.7 54.8,61.7 70,61.7 				"/>
				<polygon class="st3" points="70,100.7 70,100.7 58,97.4 57.2,88.5 46.4,88.5 47.9,105.8 70,111.9 70,111.9 				"/>
			</g>
		</g>
	</g>
</g>
</svg>
