<?xml version="1.0" encoding="utf-8"?>
<!-- Generator: Adobe Illustrator 21.0.0, SVG Export Plug-In . SVG Version: 6.00 Build 0)  -->
<svg version="1.1" id="Capa_1" xmlns="http://www.w3.org/2000/svg" xmlns:xlink="http://www.w3.org/1999/xlink" x="0px" y="0px"
	 viewBox="0 0 140 140" style="enable-background:new 0 0 140 140;" xml:space="preserve">
<style type="text/css">
	.st0{fill:#F7DF1E;}
</style>
<g>
	<path class="st0" d="M0,0h140v140H0V0z"/>
	<path d="M36.8,117l10.7-6.5c2.1,3.7,3.9,6.8,8.5,6.8c4.3,0,7-1.7,7-8.3V64.3h13.2v44.9c0,13.6-8,19.8-19.6,19.8
		C46,129,39.9,123.6,36.8,117"/>
	<path d="M83.3,115.6l10.7-6.2c2.8,4.6,6.5,8,13,8c5.5,0,8.9-2.7,8.9-6.5c0-4.5-3.6-6.1-9.6-8.7l-3.3-1.4c-9.5-4-15.8-9.1-15.8-19.8
		c0-9.9,7.5-17.4,19.3-17.4c8.4,0,14.4,2.9,18.7,10.5L115,80.6c-2.3-4-4.7-5.6-8.5-5.6c-3.9,0-6.3,2.4-6.3,5.6c0,3.9,2.4,5.5,8.1,8
		l3.3,1.4c11.2,4.8,17.5,9.7,17.5,20.7c0,11.8-9.3,18.3-21.8,18.3C95.1,129,87.2,123.2,83.3,115.6"/>
</g>
</svg>
