<?xml version="1.0" encoding="utf-8"?>
<!-- Generator: Adobe Illustrator 21.0.0, SVG Export Plug-In . SVG Version: 6.00 Build 0)  -->
<svg version="1.1" id="Capa_1" xmlns="http://www.w3.org/2000/svg" xmlns:xlink="http://www.w3.org/1999/xlink" x="0px" y="0px"
	 viewBox="0 0 140 140" style="enable-background:new 0 0 140 140;" xml:space="preserve">
<style type="text/css">
	.st0{fill:#FFFFFF;}
	.st1{fill:#A6A385;}
	.st2{fill:#499D4A;}
	.st3{fill:#58AA50;}
</style>
<g>
	<g>
		<g>
			<path class="st0" d="M72.4,123.6l-2.9-1c0,0,0.3-14.5-4.9-15.6c-3.5-4,0.6-171.2,13.1-0.6c0,0-4.3,2.2-5.1,5.8
				C71.9,115.9,72.4,123.6,72.4,123.6L72.4,123.6L72.4,123.6z"/>
			<path class="st1" d="M72.4,123.6l-2.9-1c0,0,0.3-14.5-4.9-15.6c-3.5-4,0.6-171.2,13.1-0.6c0,0-4.3,2.2-5.1,5.8
				C71.9,115.9,72.4,123.6,72.4,123.6L72.4,123.6L72.4,123.6z"/>
			<path class="st0" d="M74,109.5c0,0,25-16.4,19.1-50.6c-5.6-24.8-18.9-33-20.4-36.1c-1.6-2.2-3.1-6.1-3.1-6.1l1,69.1
				C70.6,85.9,68.5,107,74,109.5"/>
			<path class="st2" d="M74,109.5c0,0,25-16.4,19.1-50.6c-5.6-24.8-18.9-33-20.4-36.1c-1.6-2.2-3.1-6.1-3.1-6.1l1,69.1
				C70.6,85.9,68.5,107,74,109.5"/>
			<path class="st0" d="M68.1,110.4c0,0-23.5-16-22.1-44.2c1.3-28.2,17.9-42,21.1-44.5c2.1-2.2,2.2-3.1,2.3-5.3
				c1.5,3.1,1.2,46.8,1.4,52C71.5,88.2,69.7,106.7,68.1,110.4L68.1,110.4L68.1,110.4z"/>
			<path class="st3" d="M68.1,110.4c0,0-23.5-16-22.1-44.2c1.3-28.2,17.9-42,21.1-44.5c2.1-2.2,2.2-3.1,2.3-5.3
				c1.5,3.1,1.2,46.8,1.4,52C71.5,88.2,69.7,106.7,68.1,110.4L68.1,110.4L68.1,110.4z"/>
		</g>
	</g>
</g>
</svg>
