<?xml version="1.0" encoding="utf-8"?>
<!-- Generator: Adobe Illustrator 21.0.0, SVG Export Plug-In . SVG Version: 6.00 Build 0)  -->
<svg version="1.1" id="Capa_1" xmlns="http://www.w3.org/2000/svg" xmlns:xlink="http://www.w3.org/1999/xlink" x="0px" y="0px"
	 viewBox="0 0 140 140" style="enable-background:new 0 0 140 140;" xml:space="preserve">
<style type="text/css">
	.st0{fill-rule:evenodd;clip-rule:evenodd;fill:#00678F;}
	.st1{fill-rule:evenodd;clip-rule:evenodd;fill:#E38D1A;}
</style>
<g>
	<path class="st0" d="M8.4,96.3h4.1V80.2l6.4,14c0.7,1.7,1.8,2.3,3.8,2.3c2,0,3-0.6,3.7-2.3l6.3-14v16.1h4.1V80.2
		c0-1.6-0.6-2.3-1.9-2.7c-3.1-0.9-5.2-0.1-6.1,2l-6.2,13.9l-6-13.9c-0.9-2.1-3-2.9-6.1-2c-1.3,0.4-1.9,1.2-1.9,2.7V96.3L8.4,96.3z"
		/>
	<path class="st0" d="M40.1,83.2h4.1V92c0,0.5,0.2,1.6,2.4,1.7c1.2,0,8.8,0,8.9,0V83.1h4.1c0,0,0,14.4,0,14.5c0,3.6-4.4,4.3-6.5,4.4
		H40.2v-2.7c0,0,12.9,0,12.9,0c2.6-0.3,2.3-1.6,2.3-2v-1.1h-8.7c-4,0-6.6-1.8-6.7-3.8C40.1,92.1,40.2,83.3,40.1,83.2L40.1,83.2z"/>
	<path class="st0" d="M128,72.9c-2.5-0.1-4.4,0.2-6.1,0.9c-0.5,0.2-1.2,0.2-1.3,0.8c0.3,0.3,0.3,0.7,0.5,1c0.4,0.6,1,1.5,1.6,1.9
		c0.7,0.5,1.3,1,2,1.4c1.2,0.8,2.6,1.2,3.8,1.9c0.7,0.4,1.4,1,2.1,1.5c0.3,0.3,0.6,0.7,1,0.8c0,0,0-0.1,0-0.1
		c-0.2-0.3-0.3-0.7-0.5-1c-0.3-0.3-0.6-0.6-0.9-0.9c-0.9-1.2-2-2.3-3.3-3.2c-1-0.7-3.2-1.6-3.6-2.8c0,0,0,0-0.1-0.1
		c0.7-0.1,1.5-0.3,2.2-0.5c1.1-0.3,2-0.2,3.1-0.5c0.5-0.1,1-0.3,1.5-0.4c0-0.1,0-0.2,0-0.3c-0.6-0.6-1-1.3-1.6-1.8
		c-1.6-1.4-3.3-2.7-5.2-3.8c-1-0.6-2.2-1-3.3-1.6c-0.4-0.2-1-0.3-1.2-0.6c-0.6-0.7-0.9-1.6-1.3-2.4c-0.9-1.7-1.8-3.6-2.6-5.4
		c-0.6-1.2-0.9-2.4-1.6-3.6c-3.2-5.3-6.7-8.5-12.1-11.7c-1.2-0.7-2.5-0.9-4-1.3c-0.8,0-1.6-0.1-2.3-0.1c-0.5-0.2-1-0.8-1.4-1.1
		c-1.8-1.1-6.4-3.6-7.7-0.3c-0.8,2,1.3,4,2,5.1c0.5,0.7,1.2,1.5,1.6,2.3c0.2,0.5,0.3,1.1,0.5,1.7c0.5,1.4,1,2.9,1.6,4.2
		c0.3,0.7,0.7,1.3,1.2,1.9c0.3,0.3,0.7,0.5,0.8,1.1c-0.4,0.6-0.5,1.6-0.7,2.3c-1.1,3.5-0.7,7.9,0.9,10.5c0.5,0.8,1.7,2.5,3.3,1.8
		c1.4-0.6,1.1-2.3,1.5-3.9c0.1-0.4,0-0.6,0.2-0.9c0,0,0,0.1,0,0.1c0.4,0.9,0.9,1.7,1.3,2.6c1,1.5,2.7,3.1,4.1,4.2
		c0.8,0.6,1.3,1.5,2.3,1.9c0,0,0-0.1,0-0.1c0,0,0,0-0.1,0c-0.2-0.3-0.5-0.4-0.7-0.6c-0.6-0.6-1.2-1.3-1.6-1.9
		c-1.3-1.8-2.5-3.7-3.5-5.7c-0.5-1-0.9-2-1.3-3c-0.2-0.4-0.2-0.9-0.5-1.1c-0.5,0.7-1.2,1.3-1.5,2.1c-0.6,1.3-0.7,3-0.9,4.7
		C96,69,96.1,69,96,69c-1-0.3-1.3-1.3-1.7-2.2c-0.9-2.2-1.1-5.8-0.3-8.4c0.2-0.7,1.2-2.7,0.8-3.3c-0.2-0.6-0.8-0.9-1.2-1.4
		c-0.4-0.6-0.8-1.3-1.1-2c-0.8-1.8-1.1-3.7-1.9-5.4c-0.4-0.8-1-1.7-1.6-2.4c-0.6-0.8-1.3-1.4-1.7-2.4c-0.2-0.3-0.4-0.9-0.1-1.3
		c0.1-0.3,0.2-0.3,0.4-0.4c0.4-0.3,1.6,0.1,2,0.3c1.2,0.5,2.1,0.9,3.1,1.6c0.4,0.3,0.9,0.9,1.5,1.1c0.2,0,0.4,0,0.7,0
		c1,0.2,2.1,0.1,3.1,0.3c1.7,0.5,3.2,1.3,4.5,2.2c4.1,2.6,7.5,6.3,9.8,10.7c0.4,0.7,0.5,1.4,0.9,2.1c0.7,1.5,1.5,3.1,2.1,4.6
		c0.7,1.5,1.3,3,2.2,4.2c0.5,0.7,2.3,1,3.2,1.3c0.6,0.3,1.6,0.5,2.2,0.9c1.1,0.7,2.1,1.4,3.1,2.1C126.3,71.5,127.9,72.3,128,72.9
		L128,72.9z"/>
	<path class="st0" d="M96.1,45.7c-0.5,0-0.9,0.1-1.3,0.2c0,0,0,0,0,0.1c0,0,0,0,0.1,0c0.3,0.5,0.7,0.8,1,1.3c0.3,0.5,0.5,1,0.7,1.5
		c0,0,0.1-0.1,0.1-0.1c0.4-0.3,0.7-0.8,0.7-1.6c-0.2-0.2-0.2-0.4-0.4-0.7C96.7,46.1,96.3,46,96.1,45.7L96.1,45.7z"/>
	<path class="st1" d="M62.7,96.3h11.8c1.4,0,2.7-0.3,3.8-0.8c1.8-0.8,2.6-1.9,2.6-3.3v-3c0-1.2-1-2.3-2.9-3c-1-0.4-2.3-0.6-3.5-0.6
		h-4.9c-1.7,0-2.4-0.5-2.7-1.6c0-0.1,0-0.3,0-0.4v-1.8c0-0.1,0-0.2,0-0.3c0.2-0.8,0.7-1.1,2.1-1.2c0.1,0,0.3,0,0.4,0H81v-2.7H69.5
		c-1.7,0-2.5,0.1-3.3,0.3c-2.4,0.8-3.5,1.9-3.5,4v2.4c0,1.8,2.1,3.4,5.6,3.8c0.4,0,0.8,0,1.2,0h4.2c0.2,0,0.3,0,0.4,0
		c1.3,0.1,1.8,0.3,2.2,0.8c0.3,0.3,0.3,0.5,0.3,0.8V92c0,0.3-0.2,0.7-0.6,1s-1,0.5-1.8,0.6c-0.2,0-0.3,0-0.4,0H62.7V96.3L62.7,96.3z
		"/>
	<path class="st1" d="M106.3,91.6c0,2.8,2.1,4.3,6.3,4.7c0.4,0,0.8,0.1,1.2,0.1h10.6v-2.7h-10.7c-2.4,0-3.3-0.6-3.3-2V77.5h-4.1
		V91.6L106.3,91.6z"/>
	<path class="st1" d="M83.4,91.7V82c0-2.5,1.8-4,5.2-4.4c0.4,0,0.8-0.1,1.1-0.1h7.8c0.4,0,0.8,0,1.2,0.1c3.4,0.5,5.1,2,5.1,4.4v9.7
		c0,2-0.7,3.1-2.4,3.8l4,3.6h-4.7l-3.3-2.9L94,96.4h-4.4c-0.7,0-1.5-0.1-2.4-0.3C84.7,95.3,83.4,94,83.4,91.7L83.4,91.7z M87.8,91.5
		c0,0.1,0.1,0.3,0.1,0.4c0.2,1.1,1.3,1.8,2.9,1.8h3.7l-3.4-3.1h4.7l3,2.7c0.6-0.3,0.9-0.8,1-1.3c0-0.1,0-0.3,0-0.4v-9.3
		c0-0.1,0-0.3,0-0.4c-0.2-1.1-1.3-1.7-2.9-1.7h-6.2c-1.8,0-3,0.8-3,2V91.5L87.8,91.5z"/>
	<path class="st1" d="M126.3,96.3h0.6v-2.3h0.8v-0.5h-2.2v0.5h0.8V96.3L126.3,96.3z M130.8,96.3h0.6v-2.8h-0.8l-0.7,1.9l-0.8-1.9
		h-0.8v2.8h0.5v-2.1h0l0.8,2.1h0.4l0.8-2.1l0,0V96.3L130.8,96.3z"/>
</g>
</svg>
