<?xml version="1.0" encoding="utf-8"?>
<!-- Generator: Adobe Illustrator 21.0.0, SVG Export Plug-In . SVG Version: 6.00 Build 0)  -->
<svg version="1.1" id="Capa_1" xmlns="http://www.w3.org/2000/svg" xmlns:xlink="http://www.w3.org/1999/xlink" x="0px" y="0px"
	 viewBox="0 0 140 140" style="enable-background:new 0 0 140 140;" xml:space="preserve">
<style type="text/css">
	.st0{fill:url(#SVGID_1_);}
	.st1{fill:url(#SVGID_2_);}
	.st2{fill:#14559A;}
	.st3{fill:url(#SVGID_3_);}
	.st4{fill:#3092C4;}
	.st5{fill:#1969BC;}
	.st6{fill:url(#SVGID_4_);}
	.st7{fill:url(#SVGID_5_);}
	.st8{fill:url(#SVGID_6_);}
	.st9{fill:#2B74B1;}
	.st10{fill:#125A9E;}
	.st11{fill:url(#SVGID_7_);}
	.st12{fill:url(#SVGID_8_);}
	.st13{fill:#0D82CA;}
	.st14{fill:url(#SVGID_9_);}
	.st15{fill:#127BCA;}
	.st16{fill:url(#SVGID_10_);}
	.st17{fill:url(#SVGID_11_);}
	.st18{fill:#05A1E6;}
	.st19{fill:url(#SVGID_12_);}
	.st20{fill:url(#SVGID_13_);}
	.st21{fill:url(#SVGID_14_);}
	.st22{fill:#079AE1;}
	.st23{fill:#1E5CB3;}
	.st24{fill:#1D60B5;}
	.st25{fill:#175FAB;}
	.st26{fill:url(#SVGID_15_);}
	.st27{fill:#7DCBEC;}
	.st28{fill:#5EC5ED;}
	.st29{fill:url(#SVGID_16_);}
	.st30{fill:url(#SVGID_17_);}
	.st31{fill:url(#SVGID_18_);}
</style>
<g>
	<g transform="translate(26.734177, 116.658228)">
		<path d="M86-43.4c0-0.2-0.1-0.4-0.2-0.5c-0.1-0.1-0.4-0.2-0.7-0.2h-0.5v1.3h0.6C85.7-42.8,86-43,86-43.4L86-43.4z M86.7-40.8H86
			l-0.4-0.9c-0.2-0.4-0.4-0.7-0.7-0.7h-0.3v1.6h-0.5v-3.7h1c0.5,0,0.8,0.1,1.1,0.3c0.2,0.2,0.3,0.4,0.3,0.7c0,0.3-0.1,0.5-0.2,0.6
			c-0.2,0.2-0.4,0.3-0.7,0.4v0c0.2,0,0.4,0.3,0.6,0.7L86.7-40.8L86.7-40.8z M87.8-42.6c0-0.7-0.2-1.3-0.7-1.8
			c-0.5-0.5-1.1-0.7-1.8-0.7c-0.7,0-1.4,0.2-1.8,0.7c-0.5,0.5-0.7,1.1-0.7,1.8c0,0.7,0.3,1.4,0.8,1.8c0.5,0.5,1.1,0.7,1.8,0.7
			c0.7,0,1.3-0.2,1.8-0.7C87.6-41.3,87.8-41.9,87.8-42.6L87.8-42.6z M88.2-42.6c0,0.8-0.3,1.5-0.8,2.1c-0.6,0.6-1.3,0.8-2.1,0.8
			c-0.8,0-1.5-0.3-2.1-0.8c-0.6-0.5-0.8-1.2-0.8-2.1c0-0.8,0.3-1.5,0.8-2.1c0.6-0.6,1.3-0.8,2.1-0.8c0.8,0,1.5,0.3,2.1,0.8
			C87.9-44.2,88.2-43.5,88.2-42.6L88.2-42.6z"/>
		<path d="M9-32.3H7.2v-10.3c0-0.8,0.1-1.8,0.1-3h0c-0.2,0.7-0.3,1.2-0.5,1.5L1.6-32.3H0.7L-4.5-44c-0.1-0.3-0.3-0.9-0.5-1.6h0
			c0.1,0.6,0.1,1.6,0.1,3v10.3h-1.7v-15.3h2.4l4.7,10.7c0.4,0.8,0.6,1.4,0.7,1.8h0.1c0.3-0.8,0.5-1.5,0.7-1.9l4.8-10.6H9L9-32.3
			L9-32.3z"/>
		<path d="M14.5-32.3h-1.7v-10.9h1.7V-32.3L14.5-32.3z M14.8-47.2c0,0.3-0.1,0.6-0.3,0.8C14.2-46.1,14-46,13.7-46
			c-0.3,0-0.6-0.1-0.8-0.3c-0.2-0.2-0.3-0.5-0.3-0.8c0-0.3,0.1-0.6,0.3-0.8c0.2-0.2,0.5-0.3,0.8-0.3c0.3,0,0.6,0.1,0.8,0.3
			C14.7-47.7,14.8-47.5,14.8-47.2L14.8-47.2z"/>
		<path d="M25.4-32.8c-0.8,0.5-1.8,0.8-3,0.8c-1.6,0-2.8-0.5-3.8-1.6c-0.9-1-1.4-2.3-1.4-3.9c0-1.8,0.5-3.2,1.5-4.3
			c1-1.1,2.4-1.7,4.1-1.7c0.9,0,1.8,0.2,2.5,0.6v1.8c-0.8-0.6-1.7-0.9-2.6-0.9c-1.1,0-2,0.4-2.7,1.2C19.4-40.1,19-39,19-37.7
			c0,1.3,0.3,2.3,1,3c0.7,0.7,1.6,1.1,2.7,1.1c1,0,1.9-0.3,2.7-0.9V-32.8L25.4-32.8z"/>
		<path d="M33.8-41.5c-0.3-0.2-0.8-0.4-1.3-0.4c-0.7,0-1.3,0.3-1.8,1c-0.5,0.7-0.8,1.7-0.8,3v5.6h-1.7v-10.9h1.7v2.3h0
			c0.3-0.8,0.7-1.4,1.2-1.8c0.5-0.4,1.1-0.6,1.7-0.6c0.5,0,0.8,0.1,1,0.1L33.8-41.5L33.8-41.5z"/>
		<path d="M43.5-37.8c0-1.4-0.3-2.5-0.9-3.2C41.9-41.7,41.1-42,40-42c-1.1,0-2,0.4-2.6,1.1c-0.7,0.8-1,1.8-1,3.2
			c0,1.3,0.3,2.3,1,3.1c0.7,0.7,1.5,1.1,2.7,1.1c1.2,0,2-0.4,2.6-1.1C43.2-35.4,43.5-36.4,43.5-37.8 M45.3-37.8
			c0,1.7-0.5,3.1-1.5,4.2c-1,1.1-2.3,1.6-4,1.6c-1.6,0-2.9-0.5-3.9-1.6c-0.9-1-1.4-2.4-1.4-4c0-1.9,0.5-3.4,1.6-4.4
			c1-1,2.3-1.5,4-1.5c1.6,0,2.9,0.5,3.8,1.5C44.8-41,45.3-39.6,45.3-37.8"/>
		<path d="M54-35.2c0,0.9-0.3,1.6-1,2.2c-0.7,0.6-1.7,1-3,1c-1,0-1.9-0.2-2.7-0.7v-1.9c0.9,0.7,1.8,1,2.8,1c1.4,0,2.1-0.5,2.1-1.5
			c0-0.4-0.2-0.8-0.5-1.1c-0.3-0.3-0.9-0.6-1.8-1c-0.9-0.4-1.6-0.8-2-1.2c-0.5-0.5-0.7-1.2-0.7-2c0-0.9,0.4-1.7,1.1-2.3
			c0.7-0.6,1.6-0.9,2.8-0.9c0.9,0,1.6,0.2,2.3,0.5v1.8C52.8-41.8,51.9-42,51-42c-0.6,0-1,0.1-1.4,0.4c-0.4,0.3-0.5,0.7-0.5,1.1
			c0,0.5,0.1,0.9,0.4,1.1c0.3,0.2,0.8,0.6,1.6,0.9c0.9,0.4,1.6,0.8,2,1.2C53.7-36.7,54-36,54-35.2"/>
		<path d="M64.7-37.8c0-1.4-0.3-2.5-0.9-3.2c-0.6-0.7-1.5-1.1-2.6-1.1c-1.1,0-2,0.4-2.6,1.1c-0.7,0.8-1,1.8-1,3.2
			c0,1.3,0.3,2.3,1,3.1c0.7,0.7,1.6,1.1,2.7,1.1c1.2,0,2-0.4,2.6-1.1C64.4-35.4,64.7-36.4,64.7-37.8 M66.5-37.8
			c0,1.7-0.5,3.1-1.5,4.2c-1,1.1-2.3,1.6-4,1.6c-1.6,0-2.9-0.5-3.9-1.6c-0.9-1-1.4-2.4-1.4-4c0-1.9,0.5-3.4,1.6-4.4
			c1-1,2.3-1.5,4-1.5c1.6,0,2.9,0.5,3.8,1.5C66-41,66.5-39.6,66.5-37.8"/>
		<path d="M74.2-47c-0.3-0.2-0.7-0.3-1.2-0.3c-1.2,0-1.8,0.8-1.8,2.3v1.7h2.6v1.5h-2.6v9.4h-1.8v-9.4h-1.9v-1.5h1.9V-45
			c0-1.2,0.4-2.1,1.1-2.8c0.6-0.6,1.4-0.9,2.4-0.9c0.5,0,1,0.1,1.3,0.2V-47L74.2-47z"/>
		<path d="M81.1-32.4c-0.4,0.2-1,0.4-1.6,0.4c-1.9,0-2.9-1.1-2.9-3.2v-6.5h-1.9v-1.5h1.9v-2.7c0.6-0.2,1.1-0.4,1.8-0.6v3.2h2.8v1.5
			h-2.8v6.2c0,0.7,0.1,1.3,0.4,1.6c0.3,0.3,0.7,0.5,1.2,0.5c0.4,0,0.8-0.1,1.1-0.4V-32.4L81.1-32.4z"/>
	</g>
	<g transform="translate(0.000000, 160.405063)">
		<path d="M13.2-33.4c0,0.9-0.3,1.6-0.9,2.2c-0.6,0.6-1.4,0.9-2.2,0.9c-0.9,0-1.6-0.3-2.2-0.9C7.3-31.8,7-32.5,7-33.4
			c0-0.9,0.3-1.6,0.9-2.2c0.6-0.6,1.3-0.9,2.2-0.9c0.9,0,1.6,0.3,2.2,0.9C12.9-35,13.2-34.3,13.2-33.4"/>
		<path d="M52.4-30.9h-5.7L26-62.9c-0.5-0.8-0.9-1.6-1.3-2.5h-0.2c0.1,0.9,0.2,2.7,0.2,5.5v29h-4.7V-71h6.1l20.1,31.5
			c0.8,1.2,1.3,2.1,1.6,2.7H48c-0.2-1.2-0.3-3.1-0.3-5.9V-71h4.7L52.4-30.9L52.4-30.9z"/>
		<path d="M82.6-30.9H61.3V-71h20.3v4.3H66v13.4h14.5v4.3H66v14h16.6V-30.9L82.6-30.9z"/>
		<path d="M114.8-66.8h-11.6v35.9h-4.7v-35.9H87V-71h27.8V-66.8L114.8-66.8z"/>
	</g>
	<g transform="translate(0.810127, 0.000000)">
		
			<linearGradient id="SVGID_1_" gradientUnits="userSpaceOnUse" x1="-836.6816" y1="598.2313" x2="-836.6816" y2="597.4928" gradientTransform="matrix(45.6076 0 0 -81.335 38220.3477 48667.7188)">
			<stop  offset="0" style="stop-color:#0994DC"/>
			<stop  offset="0.35" style="stop-color:#66CEF5"/>
			<stop  offset="0.35" style="stop-color:#66CEF5"/>
			<stop  offset="0.8462" style="stop-color:#127BCA"/>
			<stop  offset="0.8462" style="stop-color:#127BCA"/>
			<stop  offset="1" style="stop-color:#127BCA"/>
		</linearGradient>
		<path class="st0" d="M50,20.1c4.5,13.9,6.3,38.6,19.5,38.6l0,0c1,0,2-0.1,3.1-0.3l0,0c-12.1-2.8-13.5-27.3-20.9-40l0,0
			C51.2,19,50.6,19.5,50,20.1"/>
		
			<linearGradient id="SVGID_2_" gradientUnits="userSpaceOnUse" x1="-837.5632" y1="598.3609" x2="-837.5632" y2="597.6225" gradientTransform="matrix(47.8692 0 0 -83.4083 40157.0391 49917.3086)">
			<stop  offset="0" style="stop-color:#0E76BC"/>
			<stop  offset="0.36" style="stop-color:#36AEE8"/>
			<stop  offset="0.36" style="stop-color:#36AEE8"/>
			<stop  offset="0.8462" style="stop-color:#00ADEF"/>
			<stop  offset="0.8462" style="stop-color:#00ADEF"/>
			<stop  offset="1" style="stop-color:#00ADEF"/>
		</linearGradient>
		<path class="st1" d="M51.7,18.4c7.4,12.7,8.8,37.2,20.9,40l0,0c0.9-0.2,1.9-0.4,2.8-0.8l0,0c-10.8-5.3-13.8-29.1-22.2-40.5l0,0
			C52.8,17.5,52.2,18,51.7,18.4"/>
		<path class="st2" d="M62.3,10.9c-1,0-2,0.1-3.1,0.3c-2.7,0.5-5.4,1.7-8.2,3.4c0.8,0.7,1.5,1.6,2.1,2.5c2.8-2.3,5.6-4,8.3-5.1
			c1-0.4,2.1-0.7,3.1-0.9C64,11,63.2,10.9,62.3,10.9"/>
		
			<linearGradient id="SVGID_3_" gradientUnits="userSpaceOnUse" x1="-836.9504" y1="597.7144" x2="-836.9504" y2="598.2943" gradientTransform="matrix(45.4522 0 0 -84.5 38117.2305 50564.1953)">
			<stop  offset="0" style="stop-color:#1C63B7"/>
			<stop  offset="0.5" style="stop-color:#33BDF2"/>
			<stop  offset="1" style="stop-color:#33BDF2;stop-opacity:0.4196"/>
		</linearGradient>
		<path class="st3" d="M83.9,52.8c1.1-0.9,2.2-1.9,3.3-2.9C82.6,36,81,10.9,67.6,10.9c-1,0-1.9,0.1-2.9,0.3
			C76.9,14.2,78.4,40.7,83.9,52.8"/>
		<path class="st4" d="M64.7,11.2c-0.7-0.2-1.5-0.3-2.4-0.3l5.3,0C66.6,10.9,65.7,11,64.7,11.2"/>
		<path class="st5" d="M83.7,55.7c-0.5-0.5-1-1-1.5-1.6c-2.2,1.6-4.5,2.8-6.7,3.6c0.8,0.4,1.6,0.7,2.5,0.9c0.7,0.1,1.4,0.2,2.1,0.2
			c2.5,0,4.5-0.3,6.2-1.1C85.3,57.1,84.5,56.5,83.7,55.7"/>
		
			<linearGradient id="SVGID_4_" gradientUnits="userSpaceOnUse" x1="-836.707" y1="598.5023" x2="-836.707" y2="597.7639" gradientTransform="matrix(45.0105 0 0 -86.5982 37733.3867 51832.0664)">
			<stop  offset="0" style="stop-color:#166AB8"/>
			<stop  offset="0.4" style="stop-color:#36AEE8"/>
			<stop  offset="0.4" style="stop-color:#36AEE8"/>
			<stop  offset="0.8462" style="stop-color:#0798DD"/>
			<stop  offset="0.8462" style="stop-color:#0798DD"/>
			<stop  offset="1" style="stop-color:#0798DD"/>
		</linearGradient>
		<path class="st6" d="M61.6,12.1c10.9,5.7,11.8,31.5,20.5,42l0,0c0.6-0.4,1.2-0.8,1.7-1.3l0,0c-5.4-12.1-7-38.5-19.2-41.6l0,0
			C63.7,11.4,62.6,11.7,61.6,12.1"/>
		
			<linearGradient id="SVGID_5_" gradientUnits="userSpaceOnUse" x1="-840.6434" y1="598.8452" x2="-840.6434" y2="598.1067" gradientTransform="matrix(58.3509 0 0 -92.0822 49120.0117 55146.1484)">
			<stop  offset="0" style="stop-color:#124379"/>
			<stop  offset="0.39" style="stop-color:#1487CB"/>
			<stop  offset="0.39" style="stop-color:#1487CB"/>
			<stop  offset="0.7802" style="stop-color:#165197"/>
			<stop  offset="0.7802" style="stop-color:#165197"/>
			<stop  offset="1" style="stop-color:#165197"/>
		</linearGradient>
		<path class="st7" d="M53.3,17.1c8.4,11.4,11.4,35.2,22.2,40.5l0,0c2.2-0.8,4.5-2,6.7-3.6l0,0c-8.7-10.5-9.6-36.3-20.5-42l0,0
			C58.8,13.1,56.1,14.8,53.3,17.1"/>
		
			<linearGradient id="SVGID_6_" gradientUnits="userSpaceOnUse" x1="-812.3068" y1="588.2564" x2="-811.8116" y2="588.2564" gradientTransform="matrix(19.4176 0 0 -30.9219 15813.4443 18214.0215)">
			<stop  offset="0" style="stop-color:#33BDF2;stop-opacity:0.698"/>
			<stop  offset="1" style="stop-color:#1DACD8"/>
		</linearGradient>
		<path class="st8" d="M44.7,19.7c-1.3,3-2.6,6.9-4.3,11.9c3.2-4.5,6.4-8.4,9.6-11.6c-0.4-1.4-0.9-2.6-1.4-3.7
			C47.3,17.4,46,18.5,44.7,19.7"/>
		<path class="st9" d="M49.8,15.5c-0.4,0.3-0.8,0.6-1.2,0.9c0.5,1.1,1,2.4,1.4,3.7c0.6-0.6,1.2-1.1,1.7-1.6
			C51.1,17.4,50.5,16.4,49.8,15.5"/>
		<path class="st10" d="M51.1,14.6c-0.5,0.3-0.9,0.6-1.4,0.9c0.7,0.9,1.4,1.9,2,2.9c0.5-0.5,1-0.9,1.5-1.3
			C52.6,16.2,51.9,15.3,51.1,14.6"/>
		
			<linearGradient id="SVGID_7_" gradientUnits="userSpaceOnUse" x1="-844.8122" y1="598.6078" x2="-844.8122" y2="599.0916" gradientTransform="matrix(79.1425 0 0 -98.6787 66973.1328 59125.9219)">
			<stop  offset="0" style="stop-color:#136AB4"/>
			<stop  offset="0.6" style="stop-color:#59CAF5;stop-opacity:0.549"/>
			<stop  offset="1" style="stop-color:#59CAF5;stop-opacity:0.2353"/>
		</linearGradient>
		<path class="st11" d="M125.5,9.8c-6.2,23.8-19,42.9-29.8,47.7h0c-0.2,0.1-0.4,0.2-0.6,0.2c0,0-0.1,0-0.1,0c-0.1,0-0.1,0-0.2,0.1
			c0,0-0.1,0-0.1,0c-0.1,0-0.2,0.1-0.3,0.1c0,0-0.1,0-0.1,0c0,0-0.1,0-0.1,0c0,0-0.1,0-0.1,0c0,0-0.1,0-0.1,0c-0.1,0-0.2,0-0.2,0.1
			c0,0-0.1,0-0.1,0c0,0-0.1,0-0.2,0c0,0-0.1,0-0.1,0c-0.1,0-0.1,0-0.2,0c-0.1,0-0.1,0-0.2,0c0.5,0.2,1,0.3,1.5,0.3
			c10.2,0,20.6-18.3,37.6-48.9L125.5,9.8L125.5,9.8z"/>
		
			<linearGradient id="SVGID_8_" gradientUnits="userSpaceOnUse" x1="-842.868" y1="598.8638" x2="-842.3729" y2="598.8638" gradientTransform="matrix(72.0226 0 0 -99.1613 60711.8086 59419.5352)">
			<stop  offset="0" style="stop-color:#05A1E6;stop-opacity:0.2471"/>
			<stop  offset="1" style="stop-color:#05A1E6"/>
		</linearGradient>
		<path class="st12" d="M38.2,11.9C38.2,11.9,38.2,11.8,38.2,11.9C38.2,11.8,38.2,11.8,38.2,11.9L38.2,11.9c0.1-0.1,0.2-0.1,0.2-0.1
			c0,0,0,0,0,0c0,0,0,0,0,0c0.1,0,0.1,0,0.2-0.1h0c0.1,0,0.3-0.1,0.4-0.1c0,0,0,0,0.1,0c0.1,0,0.1,0,0.2-0.1c0,0,0.1,0,0.1,0
			c0.1,0,0.1,0,0.2-0.1c0,0,0,0,0.1,0c0.2-0.1,0.4-0.1,0.6-0.1c0,0,0,0,0.1,0c0.1,0,0.1,0,0.2,0c0,0,0.1,0,0.1,0c0.1,0,0.1,0,0.2,0
			h0c0.1,0,0.2,0,0.3-0.1h0.1c0.1,0,0.1,0,0.2,0c0,0,0.1,0,0.1,0c0.1,0,0.1,0,0.2,0c0,0,0.1,0,0.1,0c0.1,0,0.2,0,0.4,0
			c-0.4,0-0.7-0.1-1.1-0.1C29.3,10.9,13.4,32.3,6.3,60h1.4c2.3-4.1,4.3-7.9,6.2-11.6C18.9,28.8,29.1,15.4,38.2,11.9"/>
		<path class="st13" d="M44.7,19.7c1.3-1.2,2.6-2.4,3.9-3.4c-0.3-0.7-0.6-1.3-0.9-1.8C46.6,15.8,45.6,17.5,44.7,19.7"/>
		<path class="st13" d="M45.6,12c0.8,0.6,1.4,1.5,2,2.5c0.2-0.2,0.4-0.5,0.6-0.7c-0.9-0.8-1.8-1.5-2.8-1.9C45.5,12,45.5,12,45.6,12
			C45.6,12,45.6,12,45.6,12"/>
		
			<linearGradient id="SVGID_9_" gradientUnits="userSpaceOnUse" x1="-837.1859" y1="596.8314" x2="-837.1859" y2="597.4935" gradientTransform="matrix(49.0511 0 0 -73.8222 41090.9297 44116.707)">
			<stop  offset="0" style="stop-color:#318ED5"/>
			<stop  offset="1" style="stop-color:#38A7E4"/>
		</linearGradient>
		<path class="st14" d="M13.9,48.4c10.5-20.3,15.5-33.1,24.3-36.6l0,0C29.1,15.4,18.9,28.8,13.9,48.4"/>
		<path class="st15" d="M48.2,13.9c-0.2,0.2-0.4,0.4-0.6,0.7c0.3,0.6,0.6,1.2,0.9,1.8c0.4-0.3,0.8-0.6,1.2-0.9
			C49.3,14.9,48.8,14.4,48.2,13.9"/>
		
			<linearGradient id="SVGID_10_" gradientUnits="userSpaceOnUse" x1="-835.9601" y1="595.434" x2="-835.9601" y2="596.2658" gradientTransform="matrix(45.6036 0 0 -57.1283 38151.8828 34073.6289)">
			<stop  offset="0" style="stop-color:#05A1E6"/>
			<stop  offset="1" style="stop-color:#05A1E6;stop-opacity:0.549"/>
		</linearGradient>
		<path class="st16" d="M18.7,59.9L18.7,59.9c-0.1,0-0.1,0-0.2,0h0c-0.1,0-0.1,0-0.2,0h0c-0.1,0-0.3,0-0.4,0h0
			c10.6-0.3,15.5-5.6,17.9-13.4c1.8-5.9,3.3-10.8,4.7-14.9c-4.5,6.3-8.9,13.8-13.4,22.1C24.8,57.8,21.5,59.5,18.7,59.9"/>
		
			<linearGradient id="SVGID_11_" gradientUnits="userSpaceOnUse" x1="-838.426" y1="597.6384" x2="-838.426" y2="598.1335" gradientTransform="matrix(52.5191 0 0 -81.0936 44065.0547 48524.5352)">
			<stop  offset="0" style="stop-color:#1959A6"/>
			<stop  offset="0.5" style="stop-color:#05A1E6"/>
			<stop  offset="0.5" style="stop-color:#05A1E6"/>
			<stop  offset="0.9176" style="stop-color:#7EC5EA"/>
			<stop  offset="1" style="stop-color:#7EC5EA"/>
		</linearGradient>
		<path class="st17" d="M18.7,59.9L18.7,59.9c2.8-0.4,6.1-2,8.3-6.1l0,0c4.5-8.4,9-15.9,13.4-22.1l0,0c1.6-5.1,3-9,4.3-11.9l0,0
			C35.8,28.2,26.9,42.2,18.7,59.9"/>
		<path class="st18" d="M13.9,48.4C12,52,9.9,55.9,7.7,60h4C12.2,55.9,13,52.1,13.9,48.4"/>
		
			<linearGradient id="SVGID_12_" gradientUnits="userSpaceOnUse" x1="-842.7551" y1="598.6364" x2="-842.8607" y2="599.0761" gradientTransform="matrix(72.6768 0 0 -99.0047 61281.957 59325.125)">
			<stop  offset="0" style="stop-color:#165096"/>
			<stop  offset="1" style="stop-color:#0D82CA"/>
		</linearGradient>
		<path class="st19" d="M41.6,11C41.5,11,41.5,11,41.6,11L41.6,11c-0.1,0-0.2,0-0.2,0l0,0c0,0-0.1,0-0.1,0l0,0c-0.1,0-0.1,0-0.2,0
			l0,0c0,0,0,0-0.1,0l0,0c-0.1,0-0.2,0-0.3,0.1l0,0h0l0,0c-0.1,0-0.1,0-0.2,0l0,0c0,0-0.1,0-0.1,0l0,0c-0.1,0-0.1,0-0.2,0l0,0
			c0,0-0.1,0-0.1,0l0,0c-0.2,0-0.4,0.1-0.6,0.1l0,0c0,0,0,0-0.1,0l0,0c-0.1,0-0.1,0-0.2,0.1l0,0c0,0-0.1,0-0.1,0l0,0
			c-0.1,0-0.1,0-0.2,0.1l0,0c0,0,0,0-0.1,0l0,0c-0.1,0-0.3,0.1-0.4,0.1l0,0l0,0l0,0c-0.1,0-0.1,0-0.2,0.1l0,0c0,0,0,0-0.1,0l0,0
			c-0.1,0-0.1,0-0.2,0.1l0,0c0,0,0,0-0.1,0l0,0c-8.8,3.5-13.8,16.3-24.3,36.6l0,0c-0.9,3.6-1.7,7.5-2.2,11.6l0,0h0.6
			c1.6,0,2,0,3.9,0l0,0h0.1h0.3h0.1h0h0.1h0.1h0h0.1h0.2h0.2h0.2h0.1h0.3l0,0c0.1,0,0.3,0,0.4,0l0,0h0l0,0c0.1,0,0.1,0,0.2,0l0,0h0
			l0,0c0.1,0,0.1,0,0.2,0l0,0c8.2-17.7,17.1-31.7,26-40.1l0,0c1-2.2,1.9-3.9,3-5.2l0,0c-0.6-1-1.3-1.9-2-2.5l0,0c0,0,0,0,0,0l0,0
			c0,0-0.1,0-0.1-0.1l0,0c0,0-0.1,0-0.1-0.1l0,0c0,0-0.1,0-0.1-0.1l0,0c-0.1,0-0.1,0-0.1-0.1l0,0c0,0-0.1,0-0.1,0l0,0
			c-0.1,0-0.2-0.1-0.2-0.1l0,0c0,0-0.1,0-0.1,0l0,0c-0.1,0-0.1,0-0.2-0.1l0,0c0,0-0.1,0-0.1,0l0,0c-0.1,0-0.2-0.1-0.2-0.1l0,0h0l0,0
			c-0.1,0-0.2-0.1-0.3-0.1l0,0c0,0,0,0-0.1,0l0,0c-0.1,0-0.2,0-0.2-0.1l0,0c0,0,0,0-0.1,0l0,0c-0.2-0.1-0.4-0.1-0.6-0.1l0,0
			c0,0,0,0-0.1,0l0,0c-0.1,0-0.2,0-0.3,0l0,0c0,0,0,0-0.1,0l0,0c-0.1,0-0.2,0-0.3,0l0,0h-0.1l0,0c-0.1,0-0.2,0-0.2,0l0,0
			C41.8,11,41.7,11,41.6,11"/>
		
			<linearGradient id="SVGID_13_" gradientUnits="userSpaceOnUse" x1="-831.1149" y1="595.1479" x2="-831.1149" y2="595.5455" gradientTransform="matrix(32.7663 0 0 -57.2261 27336.9824 34090.7188)">
			<stop  offset="0" style="stop-color:#05A1E6"/>
			<stop  offset="0.8736" style="stop-color:#0495D6"/>
			<stop  offset="1" style="stop-color:#0495D6"/>
		</linearGradient>
		<path class="st20" d="M101.4,23c-2,6.5-3.7,11.8-5.1,16.2l0,0c5.6-7.6,11-17.2,16.2-28.3l0,0C106.5,12.8,103.2,17.2,101.4,23"/>
		
			<linearGradient id="SVGID_14_" gradientUnits="userSpaceOnUse" x1="-841.728" y1="598.9769" x2="-841.8814" y2="598.4322" gradientTransform="matrix(60.2691 0 0 -96.3231 50845.3359 57703.1523)">
			<stop  offset="0" style="stop-color:#38A7E4;stop-opacity:0.3294"/>
			<stop  offset="0.9615" style="stop-color:#0E88D3"/>
			<stop  offset="0.9615" style="stop-color:#0E88D3"/>
			<stop  offset="1" style="stop-color:#0E88D3"/>
		</linearGradient>
		<path class="st21" d="M96.5,57.1c-0.3,0.1-0.6,0.3-0.8,0.4c10.8-4.8,23.7-23.9,29.8-47.7h-1.2C110.1,35.1,105.5,52.1,96.5,57.1"/>
		<path class="st22" d="M89.4,55c2.3-2.9,4.3-7.7,6.9-15.8c-3,4.1-6,7.7-9.1,10.6c0,0,0,0,0,0C87.9,51.8,88.6,53.6,89.4,55"/>
		<path class="st5" d="M89.4,55c-0.8,1-1.6,1.7-2.6,2.3c-0.2,0.1-0.4,0.2-0.6,0.3c1,0.5,2.1,0.9,3.3,1l0,0c0.2,0,0.4,0,0.5,0h0
			c0.1,0,0.2,0,0.3,0h0h0.3h0.3H91h0.2c0,0,0.1,0,0.1,0c0.1,0,0.1,0,0.2,0h0h0.1c0.1,0,0.1,0,0.2,0h0c0,0,0,0,0.1,0
			c0.1,0,0.2,0,0.2,0h0.1c0.1,0,0.2,0,0.3,0h0h0c0.2,0,0.3-0.1,0.5-0.1C91.6,57.9,90.4,56.7,89.4,55"/>
		<path class="st23" d="M69.5,58.7c1,0,2-0.1,3.1-0.3c0.9-0.2,1.9-0.4,2.8-0.8c0.8,0.4,1.6,0.7,2.5,0.9c0.7,0.1,1.4,0.2,2.1,0.2
			H69.5L69.5,58.7z"/>
		<path class="st23" d="M80.1,58.7c2.5,0,4.5-0.3,6.1-1.1c1,0.5,2.1,0.9,3.3,1l0,0c0.2,0,0.4,0,0.5,0h0c0.1,0,0.2,0,0.3,0h0h0.3
			L80.1,58.7L80.1,58.7z"/>
		<path class="st24" d="M90.7,58.7h0.3H91h0.2c0,0,0.1,0,0.1,0c0.1,0,0.1,0,0.2,0h0h0.1c0.1,0,0.1,0,0.2,0h0c0,0,0,0,0.1,0
			c0.1,0,0.2,0,0.2,0c0,0,0,0,0.1,0c0.1,0,0.2,0,0.3,0h0h0c0.2,0,0.3-0.1,0.5-0.1l0,0c0.5,0.2,1,0.3,1.5,0.3L90.7,58.7L90.7,58.7z"
			/>
		<path class="st25" d="M87.2,49.9L87.2,49.9c-1.1,1-2.2,2-3.3,2.9c-0.6,0.5-1.2,0.9-1.7,1.3c0.5,0.6,1,1.1,1.5,1.6
			c0.8,0.8,1.6,1.4,2.6,1.9c0.2-0.1,0.4-0.2,0.6-0.3c0.9-0.6,1.8-1.3,2.6-2.3C88.6,53.6,87.9,51.8,87.2,49.9"/>
		
			<linearGradient id="SVGID_15_" gradientUnits="userSpaceOnUse" x1="-843.5311" y1="599.0496" x2="-843.5311" y2="598.5437" gradientTransform="matrix(70.2816 0 0 -98.1105 59391.5078 58782.7266)">
			<stop  offset="0" style="stop-color:#168CD4"/>
			<stop  offset="0.5" style="stop-color:#1C87CC"/>
			<stop  offset="1" style="stop-color:#154B8D"/>
		</linearGradient>
		<path class="st26" d="M120.3,9.8H115h-0.5l0,0H114l0,0h0c-0.3,0-0.7,0-1,0l0,0c-0.2,0.3-0.3,0.7-0.5,1l0,0
			c-5.2,11.1-10.7,20.7-16.2,28.3l0,0c-2.6,8-4.5,12.9-6.9,15.8l0,0c1,1.7,2.2,2.9,3.6,3.4l0,0c0,0,0.1,0,0.1,0l0,0h0l0,0
			c0,0,0.1,0,0.1,0l0,0c0.1,0,0.1,0,0.2,0l0,0c0,0,0.1,0,0.1,0l0,0c0.1,0,0.1,0,0.2,0l0,0c0,0,0.1,0,0.1,0l0,0c0.1,0,0.2,0,0.2-0.1
			l0,0c0,0,0.1,0,0.1,0l0,0c0,0,0.1,0,0.1,0l0,0c0,0,0.1,0,0.1,0l0,0c0,0,0.1,0,0.1,0l0,0c0.1,0,0.2-0.1,0.3-0.1l0,0c0,0,0,0,0.1,0
			l0,0c0.1,0,0.1,0,0.2-0.1l0,0c0,0,0,0,0.1,0l0,0c0.2-0.1,0.4-0.2,0.6-0.2l0,0h0l0,0c0.3-0.1,0.6-0.3,0.8-0.4l0,0
			c9-5,13.6-22,27.7-47.3l0,0L120.3,9.8L120.3,9.8z"/>
		<path class="st27" d="M41.9,10.9C42,10.9,42,10.9,41.9,10.9c0.1,0,0.2,0,0.2,0h0.1c0.1,0,0.2,0,0.3,0c0,0,0,0,0.1,0
			c0.1,0,0.2,0,0.3,0c0,0,0,0,0.1,0c0.2,0,0.4,0.1,0.6,0.1c0,0,0,0,0.1,0c0.1,0,0.2,0,0.2,0.1c0,0,0,0,0.1,0c0.1,0,0.2,0,0.3,0.1
			c0,0,0,0,0,0c0.1,0,0.2,0.1,0.2,0.1c0,0,0.1,0,0.1,0c0.1,0,0.1,0,0.2,0.1c0,0,0.1,0,0.1,0c0.1,0,0.2,0.1,0.2,0.1c0,0,0.1,0,0.1,0
			c0,0,0.1,0,0.1,0.1c0,0,0.1,0,0.1,0.1c0,0,0.1,0,0.1,0.1c1,0.5,1.9,1.2,2.8,2c0.3-0.3,0.6-0.6,1-0.9c-1.9-1.3-4-2.1-6.4-2.1
			C42.5,10.9,42.2,11,41.9,10.9"/>
		<path class="st28" d="M48.2,13.9c0.5,0.5,1,1,1.5,1.6c0.5-0.3,0.9-0.6,1.4-0.9c-0.6-0.6-1.2-1.1-1.9-1.6
			C48.9,13.3,48.6,13.6,48.2,13.9"/>
		
			<linearGradient id="SVGID_16_" gradientUnits="userSpaceOnUse" x1="-829.3158" y1="716.5591" x2="-828.9636" y2="717.6751" gradientTransform="matrix(32.4594 0 0 4.2491 26962.6641 -3036.0813)">
			<stop  offset="0" style="stop-color:#97D6EE"/>
			<stop  offset="0.7033" style="stop-color:#55C1EA"/>
			<stop  offset="1" style="stop-color:#55C1EA"/>
		</linearGradient>
		<path class="st29" d="M41.9,10.9c0.3,0,0.6,0,0.9,0c2.4,0,4.6,0.8,6.4,2.1c2-1.6,4.4-2.1,7.7-2.1H40.8
			C41.2,10.9,41.6,10.9,41.9,10.9"/>
		
			<linearGradient id="SVGID_17_" gradientUnits="userSpaceOnUse" x1="-823.9399" y1="668.235" x2="-823.5989" y2="667.6882" gradientTransform="matrix(26.4722 0 0 7.484 21861.6602 -4986.7275)">
			<stop  offset="0" style="stop-color:#7ACCEC"/>
			<stop  offset="1" style="stop-color:#3FB7ED"/>
		</linearGradient>
		<path class="st30" d="M56.9,10.9c-3.3,0-5.7,0.5-7.7,2.1c0.7,0.5,1.3,1,1.9,1.6c2.8-1.7,5.5-2.9,8.2-3.4c1-0.2,2-0.3,3.1-0.3H56.9
			L56.9,10.9z"/>
		
			<linearGradient id="SVGID_18_" gradientUnits="userSpaceOnUse" x1="-839.6226" y1="597.9443" x2="-839.6226" y2="597.3422" gradientTransform="matrix(52.0449 0 0 -80.6355 43798.1836 48228.0039)">
			<stop  offset="0" style="stop-color:#1DA7E7"/>
			<stop  offset="1" style="stop-color:#37ABE7;stop-opacity:0"/>
		</linearGradient>
		<path class="st31" d="M96.3,39.2c1.4-4.4,3.1-9.7,5.1-16.2c1.8-5.8,5.1-10.2,11.1-12.1c0.2-0.3,0.3-0.7,0.5-1
			c-9.9,0.6-14.5,5.6-16.9,13.1c-4.1,13-6.5,21.5-8.9,26.8C90.3,46.9,93.3,43.4,96.3,39.2"/>
		<path d="M110.8,55.2h-1.1v3.5h-0.5v-3.5h-1.1v-0.4h2.7V55.2L110.8,55.2z"/>
		<path d="M115.4,58.7H115v-2.6c0-0.2,0-0.5,0-0.8l0,0c0,0.2-0.1,0.3-0.1,0.4l-1.3,3h-0.2l-1.3-3c0-0.1-0.1-0.2-0.1-0.4h0
			c0,0.2,0,0.4,0,0.8v2.6h-0.4v-3.9h0.6l1.2,2.7c0.1,0.2,0.1,0.4,0.2,0.5h0c0.1-0.2,0.1-0.4,0.2-0.5l1.2-2.7h0.6L115.4,58.7
			L115.4,58.7z"/>
	</g>
</g>
</svg>
