<?xml version="1.0" encoding="utf-8"?>
<!-- Generator: Adobe Illustrator 21.0.0, SVG Export Plug-In . SVG Version: 6.00 Build 0)  -->
<svg version="1.1" id="Capa_1" xmlns="http://www.w3.org/2000/svg" xmlns:xlink="http://www.w3.org/1999/xlink" x="0px" y="0px"
	 viewBox="0 0 140 140" style="enable-background:new 0 0 140 140;" xml:space="preserve">
<style type="text/css">
	.st0{fill:#539E43;}
</style>
<g>
	<path class="st0" d="M70,137c-1.8,0-3.6-0.5-5.2-1.4l-16.4-9.7c-2.5-1.4-1.2-1.8-0.5-2.1c3.3-1.1,3.9-1.4,7.4-3.3
		c0.4-0.2,0.9-0.1,1.2,0.1l12.6,7.5c0.5,0.2,1.1,0.2,1.5,0l49.1-28.4c0.5-0.2,0.7-0.7,0.7-1.4V41.6c0-0.6-0.2-1.1-0.7-1.4L70.6,11.9
		c-0.5-0.2-1.1-0.2-1.5,0L20,40.2c-0.5,0.2-0.7,0.9-0.7,1.4v56.8c0,0.5,0.2,1.1,0.7,1.4l13.4,7.8c7.3,3.7,11.8-0.6,11.8-4.9v-56
		c0-0.7,0.6-1.5,1.5-1.5H53c0.7,0,1.5,0.6,1.5,1.5v56c0,9.7-5.3,15.4-14.5,15.4c-2.8,0-5,0-11.3-3.1l-12.9-7.4
		c-3.2-1.8-5.2-5.3-5.2-9V41.7c0-3.7,2-7.1,5.2-9L64.8,4.3c3.1-1.7,7.3-1.7,10.3,0l49.1,28.4c3.2,1.8,5.2,5.3,5.2,9v56.8
		c0,3.7-2,7.1-5.2,9l-49.1,28.4C73.6,136.6,71.7,137,70,137L70,137z M85.1,98c-21.5,0-26-9.8-26-18.2c0-0.7,0.6-1.5,1.5-1.5H67
		c0.7,0,1.4,0.5,1.4,1.2c1,6.5,3.8,9.7,16.9,9.7c10.3,0,14.8-2.3,14.8-7.9c0-3.2-1.2-5.5-17.4-7.1c-13.4-1.4-21.8-4.3-21.8-15
		c0-10,8.4-15.9,22.4-15.9c15.8,0,23.5,5.4,24.5,17.2c0,0.4-0.1,0.7-0.4,1.1c-0.2,0.2-0.6,0.5-1,0.5H100c-0.6,0-1.2-0.5-1.4-1.1
		c-1.5-6.8-5.3-9-15.4-9C72,52.1,70.6,56,70.6,59c0,3.6,1.6,4.7,16.9,6.6c15.1,2,22.3,4.8,22.3,15.4C109.6,91.8,100.8,98,85.1,98
		L85.1,98z"/>
</g>
</svg>
