<?xml version="1.0" encoding="utf-8"?>
<!-- Generator: Adobe Illustrator 21.0.0, SVG Export Plug-In . SVG Version: 6.00 Build 0)  -->
<svg version="1.1" id="Capa_1" xmlns="http://www.w3.org/2000/svg" xmlns:xlink="http://www.w3.org/1999/xlink" x="0px" y="0px"
	 viewBox="0 0 140 140" style="enable-background:new 0 0 140 140;" xml:space="preserve">
<style type="text/css">
	.st0{clip-path:url(#SVGID_2_);}
	.st1{fill-rule:evenodd;clip-rule:evenodd;fill:#6481B9;}
	.st2{fill-rule:evenodd;clip-rule:evenodd;fill:#FFFFFF;}
	.st3{fill-rule:evenodd;clip-rule:evenodd;fill:#231F20;}
</style>
<g>
	<g>
		<defs>
			<path id="SVGID_1_" d="M70,105c36.7,0,66.5-15.7,66.5-35c0-19.3-29.8-35-66.5-35S3.5,50.7,3.5,70C3.5,89.3,33.3,105,70,105
				L70,105z"/>
		</defs>
		<clipPath id="SVGID_2_">
			<use xlink:href="#SVGID_1_"  style="overflow:visible;"/>
		</clipPath>
		<g class="st0">
			<defs>
				<rect id="SVGID_3_" x="3.5" y="35" width="133.1" height="70"/>
			</defs>
			<clipPath id="SVGID_4_">
				<use xlink:href="#SVGID_3_"  style="overflow:visible;"/>
			</clipPath>
			<g style="clip-path:url(#SVGID_4_);">
				
					<image style="overflow:visible;" width="364" height="193" xlink:href="3A1B74E8.png"  transform="matrix(0.3711 0 0 -0.3711 2.594 105.9764)">
				</image>
			</g>
		</g>
		<g class="st0">
			<defs>
				<rect id="SVGID_5_" x="3.5" y="35" width="133.1" height="70"/>
			</defs>
			<clipPath id="SVGID_6_">
				<use xlink:href="#SVGID_5_"  style="overflow:visible;"/>
			</clipPath>
			<g style="clip-path:url(#SVGID_6_);">
				
					<image style="overflow:visible;" width="364" height="193" xlink:href="3A1B74E9.png"  transform="matrix(0.3711 0 0 -0.3711 2.594 105.9764)">
				</image>
			</g>
		</g>
	</g>
	<path class="st1" d="M70,102.4c35.3,0,63.9-14.5,63.9-32.4c0-17.9-28.6-32.4-63.9-32.4C34.7,37.6,6.1,52.1,6.1,70
		C6.1,87.9,34.7,102.4,70,102.4L70,102.4z"/>
	<path class="st2" d="M83,80.5l3.2-16.3c0.7-3.7,0.1-6.4-1.8-8.2c-1.8-1.7-4.9-2.5-9.5-2.5h-5.5l1.6-8.1c0.1-0.3,0-0.6-0.2-0.9
		c-0.2-0.2-0.5-0.4-0.8-0.4h-7.6c-0.5,0-0.9,0.4-1,0.8l-3.4,17.3c-0.3-2-1.1-3.6-2.3-5c-2.2-2.5-5.7-3.8-10.5-3.8H30.5
		c-0.5,0-0.9,0.4-1,0.8l-6.8,35.1c-0.1,0.3,0,0.6,0.2,0.9c0.2,0.2,0.5,0.4,0.8,0.4h7.6c0.5,0,0.9-0.4,1-0.8l1.6-8.5h5.7
		c3,0,5.5-0.3,7.4-1c2-0.7,3.8-1.8,5.5-3.3c1.3-1.2,2.4-2.6,3.2-4l-1.4,7c-0.1,0.3,0,0.6,0.2,0.9c0.2,0.2,0.5,0.4,0.8,0.4h7.6
		c0.5,0,0.9-0.4,1-0.8l3.7-19.3h5.2c2.2,0,2.9,0.4,3,0.6c0.2,0.2,0.5,0.8,0.1,2.7l-3,15.5c-0.1,0.3,0,0.6,0.2,0.9
		c0.2,0.2,0.5,0.4,0.8,0.4h7.7C82.4,81.3,82.9,81,83,80.5L83,80.5z M47.8,67c-0.5,2.4-1.4,4.2-2.7,5.2c-1.3,1-3.4,1.5-6.2,1.5h-3.4
		L38,61.1h4.4c3.2,0,4.5,0.7,5,1.3C48.1,63.2,48.2,64.8,47.8,67L47.8,67z"/>
	<path class="st2" d="M114.9,57.3c-2.2-2.5-5.7-3.8-10.5-3.8H89.7c-0.5,0-0.9,0.4-1,0.8l-6.8,35.1c-0.1,0.3,0,0.6,0.2,0.9
		c0.2,0.2,0.5,0.4,0.8,0.4h7.6c0.5,0,0.9-0.4,1-0.8l1.6-8.5h5.7c3,0,5.5-0.3,7.4-1c2-0.7,3.8-1.8,5.5-3.3c1.4-1.2,2.5-2.6,3.3-4.2
		c0.8-1.5,1.4-3.2,1.8-5C117.8,63.5,117.1,59.9,114.9,57.3L114.9,57.3z M107.4,67c-0.5,2.4-1.4,4.2-2.7,5.2c-1.3,1-3.4,1.5-6.2,1.5
		h-3.4l2.4-12.6h4.4c3.2,0,4.5,0.7,5,1.3C107.7,63.2,107.9,64.8,107.4,67L107.4,67z"/>
	<path class="st3" d="M42.3,60.1c2.9,0,4.8,0.5,5.8,1.6c1,1.1,1.2,2.9,0.7,5.5c-0.5,2.7-1.5,4.7-3.1,5.8c-1.5,1.2-3.8,1.7-6.9,1.7
		h-4.6l2.9-14.7H42.3L42.3,60.1z M23.7,89.6h7.6l1.8-9.3h6.5c2.9,0,5.3-0.3,7.1-0.9c1.9-0.6,3.6-1.6,5.1-3.1
		c1.3-1.2,2.3-2.5,3.1-3.9c0.8-1.4,1.4-3,1.7-4.7c0.8-4.2,0.2-7.4-1.8-9.7c-2-2.3-5.3-3.5-9.7-3.5H30.5L23.7,89.6L23.7,89.6z"/>
	<path class="st3" d="M62.3,45.2h7.6l-1.8,9.3h6.8c4.2,0,7.2,0.7,8.8,2.2c1.6,1.5,2.1,3.9,1.5,7.2l-3.2,16.3h-7.7l3-15.5
		c0.3-1.8,0.2-3-0.4-3.6c-0.6-0.6-1.9-1-3.8-1H67l-3.9,20.1h-7.6L62.3,45.2L62.3,45.2z"/>
	<path class="st3" d="M102,60.1c2.9,0,4.8,0.5,5.8,1.6c1,1.1,1.2,2.9,0.7,5.5c-0.5,2.7-1.5,4.7-3.1,5.8c-1.5,1.2-3.8,1.7-6.9,1.7
		h-4.6l2.9-14.7H102L102,60.1z M83.4,89.6H91l1.8-9.3h6.5c2.9,0,5.3-0.3,7.1-0.9c1.9-0.6,3.6-1.6,5.1-3.1c1.3-1.2,2.3-2.5,3.1-3.9
		c0.8-1.4,1.4-3,1.7-4.7c0.8-4.2,0.2-7.4-1.8-9.7c-2-2.3-5.3-3.5-9.7-3.5H90.2L83.4,89.6L83.4,89.6z"/>
</g>
</svg>
