<?xml version="1.0" encoding="utf-8"?>
<!-- Generator: Adobe Illustrator 21.0.0, SVG Export Plug-In . SVG Version: 6.00 Build 0)  -->
<svg version="1.1" id="Capa_1" xmlns="http://www.w3.org/2000/svg" xmlns:xlink="http://www.w3.org/1999/xlink" x="0px" y="0px"
	 viewBox="0 0 140 140" style="enable-background:new 0 0 140 140;" xml:space="preserve">
<style type="text/css">
	.st0{fill:#336791;}
	.st1{fill:#FFFFFF;}
</style>
<g>
	<path d="M127.9,81.9c-0.7-2.1-2.5-3.6-4.9-3.9c-1.1-0.2-2.4-0.1-3.9,0.2c-2.6,0.5-4.6,0.8-6,0.8c5.4-9.1,9.8-19.5,12.3-29.3
		c4.1-15.8,1.9-23-0.6-26.3C118,14.8,108.1,10.1,96.2,10c-6.3-0.1-11.9,1.2-14.8,2.1c-2.7-0.5-5.6-0.7-8.7-0.8
		C67.1,11.2,62,12.4,57.7,15c-2.4-0.8-6.2-1.9-10.6-2.7c-10.4-1.7-18.8-0.4-24.9,4c-7.4,5.2-10.9,14.4-10.2,27.1
		c0.2,4,2.5,16.3,6,28c2,6.7,4.2,12.3,6.5,16.6c3.2,6.1,6.6,9.6,10.5,10.9c2.2,0.7,6.1,1.2,10.2-2.2c0.5,0.6,1.2,1.3,2.1,1.8
		c1.2,0.7,2.6,1.3,4,1.7c5.2,1.3,10,1,14.1-0.8c0,0.7,0,1.4,0.1,2c0,1,0.1,1.9,0.1,2.8c0.2,6.1,0.7,10.8,1.9,14.2
		c0.1,0.2,0.2,0.5,0.3,0.8c0.6,1.9,1.6,5,4.2,7.5c2.7,2.5,6,3.3,9,3.3c1.5,0,2.9-0.2,4.2-0.5c4.5-1,9.6-2.4,13.2-7.7
		c3.5-4.9,5.2-12.4,5.5-24.2c0-0.3,0.1-0.6,0.1-1l0.1-0.6l0.8,0.1l0.2,0c4.6,0.2,10.1-0.8,13.6-2.3
		C121.3,92.6,129.9,88.1,127.9,81.9"/>
	<path class="st0" d="M120.1,83.1c-13.6,2.8-14.5-1.8-14.5-1.8c14.3-21.2,20.3-48.2,15.1-54.8c-14.1-18-38.5-9.5-38.9-9.3l-0.1,0
		c-2.7-0.6-5.7-0.9-9-0.9c-6.1-0.1-10.8,1.6-14.3,4.3c0,0-43.5-17.9-41.5,22.5c0.4,8.6,12.3,65.1,26.5,48
		c5.2-6.2,10.2-11.5,10.2-11.5c2.5,1.7,5.5,2.5,8.6,2.2l0.2-0.2c-0.1,0.8,0,1.5,0.1,2.4c-3.7,4.1-2.6,4.8-9.9,6.3
		c-7.4,1.5-3.1,4.2-0.2,4.9c3.4,0.9,11.4,2.1,16.8-5.4L69,90.8c1.4,1.1,2.4,7.5,2.3,13.2c-0.2,5.7-0.3,9.7,0.8,12.7
		c1.1,3.1,2.3,10,11.9,7.9c8-1.7,12.2-6.2,12.8-13.6c0.4-5.3,1.3-4.5,1.4-9.2l0.7-2.2c0.9-7.2,0.1-9.5,5.1-8.4l1.2,0.1
		c3.6,0.2,8.4-0.6,11.2-1.9C122.5,86.5,126,81.9,120.1,83.1L120.1,83.1"/>
	<path class="st1" d="M60.9,47c-1.2-0.2-2.3,0-2.9,0.4c-0.3,0.2-0.4,0.5-0.4,0.7c-0.1,0.5,0.3,1.1,0.5,1.3c0.6,0.8,1.5,1.4,2.4,1.5
		c0.1,0,0.3,0,0.4,0c1.5,0,2.8-1.2,2.9-2C64,47.9,62.4,47.2,60.9,47 M101.4,47c-0.1-0.8-1.6-1.1-3-0.9c-1.4,0.2-2.8,0.8-2.7,1.7
		c0.1,0.7,1.3,1.8,2.7,1.8c0.1,0,0.2,0,0.4,0c0.9-0.1,1.6-0.7,1.9-1.1C101.2,48,101.4,47.4,101.4,47"/>
	<path class="st1" d="M124.6,82.8c-0.5-1.6-2.2-2.1-4.9-1.5c-8.2,1.7-11.1,0.5-12.1-0.2c6.4-9.7,11.6-21.5,14.5-32.4
		c1.3-5.2,2.1-10,2.1-13.9c0.1-4.3-0.7-7.5-2.2-9.4c-6.1-7.8-15.1-12-25.9-12.1c-7.5-0.1-13.8,1.8-15,2.4c-2.6-0.6-5.4-1-8.4-1.1
		c-5.6-0.1-10.4,1.3-14.4,4c-1.7-0.6-6.2-2.2-11.7-3.1C36.9,13.8,29.4,15,24,18.8c-6.4,4.6-9.4,12.7-8.8,24.2
		c0.2,3.9,2.4,15.8,5.9,27.2c4.6,15,9.6,23.5,14.8,25.3c0.6,0.2,1.3,0.3,2.1,0.3c1.9,0,4.3-0.9,6.7-3.8c3-3.6,6.1-7.1,9.2-10.4
		c2.1,1.1,4.3,1.7,6.6,1.8c0,0.1,0,0.1,0,0.2c-0.4,0.5-0.8,1-1.2,1.4c-1.6,2-1.9,2.5-7.1,3.5c-1.5,0.3-5.4,1.1-5.4,3.8
		c-0.1,3,4.6,4.2,5.1,4.4c1.9,0.5,3.6,0.7,5.4,0.7c4.1,0,7.8-1.4,10.7-4c-0.1,10.7,0.4,21.2,1.6,24.4c1,2.6,3.6,9,11.7,9
		c1.2,0,2.5-0.1,3.9-0.4c8.4-1.8,12.1-5.5,13.5-13.8c0.8-4.4,2.1-14.9,2.7-20.5c1.3,0.4,3,0.6,4.8,0.6c3.8,0,8.1-0.8,10.8-2.1
		C120.1,89.3,125.6,85.8,124.6,82.8L124.6,82.8z M104.5,44.7c0,1.7-0.3,3.2-0.5,4.7c-0.3,1.7-0.5,3.4-0.6,5.6
		c-0.1,2.1,0.2,4.2,0.4,6.3c0.5,4.2,1,8.5-1,12.8c-0.3-0.6-0.6-1.2-0.9-1.8c-0.2-0.6-0.8-1.6-1.5-2.9c-2.9-5.2-9.7-17.5-6.2-22.5
		C95.2,45.4,97.9,43.9,104.5,44.7L104.5,44.7z M96.5,16.6c9.7,0.2,17.4,3.9,22.9,10.8c4.2,5.3-0.4,29.6-13.7,50.6
		c-0.1-0.2-0.3-0.3-0.4-0.5l-0.2-0.2c3.4-5.7,2.8-11.3,2.2-16.3c-0.2-2-0.5-4-0.4-5.8c0.1-1.9,0.3-3.6,0.6-5.2c0.3-2,0.6-4,0.5-6.4
		c0.1-0.3,0.1-0.5,0.1-0.9c-0.2-2.3-2.8-9.2-8.2-15.4c-2.9-3.4-7.2-7.2-13-9.8C89.2,17,92.6,16.5,96.5,16.6L96.5,16.6z M42.1,89.9
		c-2.7,3.2-4.5,2.6-5.2,2.4c-4-1.3-8.6-9.7-12.7-23.1c-3.5-11.5-5.6-23.1-5.7-26.4c-0.5-10.3,2-17.5,7.4-21.3
		c8.8-6.3,23.4-2.5,29.2-0.6C55,21,55,21.1,54.9,21.2c-9.6,9.7-9.4,26.2-9.3,27.2c0,0.4,0,0.9,0.1,1.7c0.2,2.8,0.5,8-0.3,13.8
		c-0.8,5.4,0.9,10.8,4.6,14.6c0.4,0.4,0.8,0.8,1.2,1.1C49.4,81.5,45.9,85.4,42.1,89.9L42.1,89.9z M52.3,76.3
		c-3-3.1-4.3-7.4-3.7-11.8c0.9-6.2,0.5-11.6,0.4-14.5c0-0.4,0-0.8-0.1-1c1.4-1.2,7.9-4.7,12.5-3.7c2.1,0.5,3.4,1.9,3.9,4.4
		c2.8,12.8,0.4,18.1-1.6,22.4c-0.4,0.9-0.8,1.7-1.1,2.6l-0.2,0.7c-0.6,1.7-1.2,3.3-1.6,4.8C57.7,80.1,54.6,78.7,52.3,76.3L52.3,76.3
		z M52.8,93.5c-0.9-0.2-1.8-0.6-2.2-1c0.4-0.2,1.1-0.5,2.4-0.7c6.1-1.3,7-2.1,9.1-4.7c0.5-0.6,1-1.3,1.7-2.1l0,0
		c1.1-1.2,1.6-1,2.5-0.6c0.7,0.3,1.5,1.2,1.8,2.3c0.1,0.5,0.3,1.4-0.2,2.1C63.5,94.7,57.3,94.7,52.8,93.5z M84.6,123.2
		c-7.4,1.6-10.1-2.2-11.8-6.5c-1.1-2.8-1.7-15.4-1.3-29.4c0-0.2,0-0.4-0.1-0.5c0-0.3-0.1-0.7-0.2-1c-0.6-2-2-3.7-3.7-4.4
		c-0.7-0.3-1.9-0.8-3.4-0.4c0.3-1.3,0.9-2.8,1.5-4.4l0.3-0.7c0.3-0.8,0.6-1.5,1-2.4c2-4.5,4.8-10.6,1.8-24.5
		c-1.1-5.2-4.9-7.7-10.6-7.2c-3.4,0.4-6.5,1.7-8.1,2.5c-0.3,0.2-0.6,0.3-0.9,0.5c0.4-5.2,2.1-15,8.2-21.2c3.9-3.9,9-5.8,15.3-5.7
		c12.4,0.2,20.3,6.6,24.8,11.8c3.9,4.6,5.9,9.1,6.8,11.6c-6.3-0.6-10.5,0.6-12.7,3.7c-4.7,6.7,2.6,19.8,6.1,26
		c0.6,1.1,1.2,2.1,1.4,2.6c1.1,2.8,2.6,4.6,3.7,5.9c0.3,0.4,0.6,0.8,0.9,1.2c-1.9,0.5-5.3,1.8-5,8.1c-0.3,3.2-2,18-2.9,23.3
		C94.3,119,91.8,121.6,84.6,123.2L84.6,123.2z M115.6,87.6c-1.9,0.9-5.2,1.6-8.3,1.7c-3.4,0.2-5.1-0.4-5.6-0.7
		c-0.2-3.9,1.3-4.4,2.8-4.8c0.2-0.1,0.5-0.1,0.7-0.2c0.1,0.1,0.3,0.2,0.5,0.3c2.7,1.8,7.6,2,14.5,0.6l0.1,0
		C119.5,85.4,117.9,86.6,115.6,87.6L115.6,87.6z"/>
</g>
</svg>
