<?xml version="1.0" encoding="utf-8"?>
<!-- Generator: Adobe Illustrator 21.0.0, SVG Export Plug-In . SVG Version: 6.00 Build 0)  -->
<svg version="1.1" id="Capa_1" xmlns="http://www.w3.org/2000/svg" xmlns:xlink="http://www.w3.org/1999/xlink" x="0px" y="0px"
	 viewBox="0 0 140 140" style="enable-background:new 0 0 140 140;" xml:space="preserve">
<style type="text/css">
	.st0{fill:#FFFFFF;}
	.st1{fill:#53C1DE;}
</style>
<g>
	<path class="st0" d="M70,59.1c-6,0-10.8,4.9-10.8,10.8c0,6,4.9,10.8,10.8,10.8c6,0,10.8-4.9,10.8-10.8C80.8,63.9,76,59.1,70,59.1z
		 M70,59.1c-6,0-10.8,4.9-10.8,10.8c0,6,4.9,10.8,10.8,10.8c6,0,10.8-4.9,10.8-10.8C80.8,63.9,76,59.1,70,59.1z M70,59.1
		c-6,0-10.8,4.9-10.8,10.8c0,6,4.9,10.8,10.8,10.8c6,0,10.8-4.9,10.8-10.8C80.8,63.9,76,59.1,70,59.1z M70,59.1
		c-6,0-10.8,4.9-10.8,10.8c0,6,4.9,10.8,10.8,10.8c6,0,10.8-4.9,10.8-10.8C80.8,63.9,76,59.1,70,59.1z M70,59.1
		c-6,0-10.8,4.9-10.8,10.8c0,6,4.9,10.8,10.8,10.8c6,0,10.8-4.9,10.8-10.8C80.8,63.9,76,59.1,70,59.1z M70,59.1
		c-6,0-10.8,4.9-10.8,10.8c0,6,4.9,10.8,10.8,10.8c6,0,10.8-4.9,10.8-10.8C80.8,63.9,76,59.1,70,59.1z M70,59.1
		c-6,0-10.8,4.9-10.8,10.8c0,6,4.9,10.8,10.8,10.8c6,0,10.8-4.9,10.8-10.8C80.8,63.9,76,59.1,70,59.1z M70,59.1
		c-6,0-10.8,4.9-10.8,10.8c0,6,4.9,10.8,10.8,10.8c6,0,10.8-4.9,10.8-10.8C80.8,63.9,76,59.1,70,59.1z M70,59.1
		c-6,0-10.8,4.9-10.8,10.8c0,6,4.9,10.8,10.8,10.8c6,0,10.8-4.9,10.8-10.8C80.8,63.9,76,59.1,70,59.1z M70,59.1
		c-6,0-10.8,4.9-10.8,10.8c0,6,4.9,10.8,10.8,10.8c6,0,10.8-4.9,10.8-10.8C80.8,63.9,76,59.1,70,59.1z M70,59.1
		c-6,0-10.8,4.9-10.8,10.8c0,6,4.9,10.8,10.8,10.8c6,0,10.8-4.9,10.8-10.8C80.8,63.9,76,59.1,70,59.1z M70,59.1
		c-6,0-10.8,4.9-10.8,10.8c0,6,4.9,10.8,10.8,10.8c6,0,10.8-4.9,10.8-10.8C80.8,63.9,76,59.1,70,59.1z M70,59.1
		c-6,0-10.8,4.9-10.8,10.8c0,6,4.9,10.8,10.8,10.8c6,0,10.8-4.9,10.8-10.8C80.8,63.9,76,59.1,70,59.1z M70,59.1
		c-6,0-10.8,4.9-10.8,10.8c0,6,4.9,10.8,10.8,10.8c6,0,10.8-4.9,10.8-10.8C80.8,63.9,76,59.1,70,59.1z M70,59.1
		c-6,0-10.8,4.9-10.8,10.8c0,6,4.9,10.8,10.8,10.8c6,0,10.8-4.9,10.8-10.8C80.8,63.9,76,59.1,70,59.1z M70,59.1
		c-6,0-10.8,4.9-10.8,10.8c0,6,4.9,10.8,10.8,10.8c6,0,10.8-4.9,10.8-10.8C80.8,63.9,76,59.1,70,59.1z M70,59.1
		c-6,0-10.8,4.9-10.8,10.8c0,6,4.9,10.8,10.8,10.8c6,0,10.8-4.9,10.8-10.8C80.8,63.9,76,59.1,70,59.1z M70,59.1
		c-6,0-10.8,4.9-10.8,10.8c0,6,4.9,10.8,10.8,10.8c6,0,10.8-4.9,10.8-10.8C80.8,63.9,76,59.1,70,59.1z M70,59.1
		c-6,0-10.8,4.9-10.8,10.8c0,6,4.9,10.8,10.8,10.8c6,0,10.8-4.9,10.8-10.8C80.8,63.9,76,59.1,70,59.1z M70,59.1
		c-6,0-10.8,4.9-10.8,10.8c0,6,4.9,10.8,10.8,10.8c6,0,10.8-4.9,10.8-10.8C80.8,63.9,76,59.1,70,59.1z M70,59.1
		c-6,0-10.8,4.9-10.8,10.8c0,6,4.9,10.8,10.8,10.8c6,0,10.8-4.9,10.8-10.8C80.8,63.9,76,59.1,70,59.1z M70,59.1
		c-6,0-10.8,4.9-10.8,10.8c0,6,4.9,10.8,10.8,10.8c6,0,10.8-4.9,10.8-10.8C80.8,63.9,76,59.1,70,59.1z M70,59.1
		c-6,0-10.8,4.9-10.8,10.8c0,6,4.9,10.8,10.8,10.8c6,0,10.8-4.9,10.8-10.8C80.8,63.9,76,59.1,70,59.1z M70,59.1
		c-6,0-10.8,4.9-10.8,10.8c0,6,4.9,10.8,10.8,10.8c6,0,10.8-4.9,10.8-10.8C80.8,63.9,76,59.1,70,59.1z M70,59.1
		c-6,0-10.8,4.9-10.8,10.8c0,6,4.9,10.8,10.8,10.8c6,0,10.8-4.9,10.8-10.8C80.8,63.9,76,59.1,70,59.1z M70,59.1
		c-6,0-10.8,4.9-10.8,10.8c0,6,4.9,10.8,10.8,10.8c6,0,10.8-4.9,10.8-10.8C80.8,63.9,76,59.1,70,59.1z M109.1,51
		c-1.3-0.4-2.6-0.8-3.9-1.2c0.2-0.9,0.4-1.8,0.6-2.7c3-14.4,1-25.9-5.6-29.8c-6.3-3.7-16.7,0.2-27.2,9.3c-1,0.9-2,1.8-3,2.8
		c-0.7-0.6-1.3-1.3-2-1.9c-11-9.7-22-13.8-28.6-10c-6.3,3.7-8.2,14.5-5.5,28.2c0.3,1.3,0.6,2.7,0.9,4c-1.6,0.4-3.1,0.9-4.5,1.4
		C17.5,55.6,9.3,62.6,9.3,69.9c0,7.5,8.8,15.1,22.2,19.7c1.1,0.4,2.2,0.7,3.3,1c-0.4,1.5-0.7,2.9-1,4.3c-2.5,13.4-0.6,24,5.8,27.6
		c6.5,3.8,17.5-0.1,28.1-9.4c0.8-0.7,1.7-1.5,2.5-2.3c1.1,1.1,2.2,2.1,3.3,3c10.3,8.9,20.5,12.5,26.8,8.8c6.5-3.8,8.6-15.2,5.9-29.1
		c-0.2-1.1-0.5-2.1-0.7-3.2c0.8-0.2,1.5-0.5,2.3-0.7c13.9-4.6,23-12.1,23-19.7C130.7,62.6,122.3,55.5,109.1,51z M76.5,30.5
		c9-7.8,17.3-10.9,21.2-8.7c4.1,2.3,5.6,11.8,3.1,24.2c-0.2,0.8-0.3,1.6-0.5,2.4c-5-1.2-10.5-2-16.2-2.6c-3.3-4.8-6.8-9.1-10.3-12.8
		C74.6,32.2,75.6,31.3,76.5,30.5z M45.1,76.1c1.1,2.1,2.2,4.2,3.4,6.3c1.2,2.1,2.5,4.2,3.8,6.2c-4-0.4-7.7-1-11.2-1.8
		C42.3,83.4,43.6,79.8,45.1,76.1z M45.1,63.9c-1.5-3.6-2.8-7.1-3.9-10.5c3.5-0.8,7.2-1.4,11-1.9c-1.3,2-2.5,4-3.7,6.1
		C47.4,59.7,46.2,61.8,45.1,63.9z M47.9,70c1.6-3.3,3.3-6.5,5.2-9.8c1.9-3.3,3.8-6.4,5.9-9.4c3.6-0.3,7.3-0.4,11.1-0.4
		c3.8,0,7.5,0.1,11.1,0.4c2,3,4,6.1,5.9,9.3c1.9,3.3,3.7,6.5,5.2,9.7c-1.6,3.3-3.3,6.5-5.2,9.8c-1.9,3.3-3.8,6.4-5.8,9.4
		c-3.6,0.3-7.3,0.4-11.1,0.4c-3.8,0-7.5-0.1-11-0.3c-2.1-3-4-6.2-5.9-9.4C51.2,76.6,49.5,73.3,47.9,70z M91.4,82.4
		c1.2-2.1,2.4-4.3,3.5-6.4c1.6,3.7,3,7.3,4.1,10.7c-3.5,0.8-7.3,1.5-11.3,1.9C89,86.6,90.2,84.5,91.4,82.4z M94.9,63.9
		c-1.1-2.1-2.3-4.2-3.5-6.3c-1.2-2.1-2.4-4.1-3.7-6.1c3.9,0.5,7.6,1.1,11.1,1.9C97.8,56.8,96.5,60.3,94.9,63.9z M70.1,36.8
		c2.4,2.6,4.8,5.5,7.1,8.6c-2.4-0.1-4.8-0.2-7.2-0.2c-2.4,0-4.8,0.1-7.1,0.2C65.2,42.3,67.6,39.4,70.1,36.8z M42.1,22
		c4.1-2.3,13,1,22.5,9.4c0.6,0.5,1.2,1.1,1.8,1.7c-3.5,3.8-7,8.1-10.3,12.8c-5.7,0.5-11.2,1.4-16.2,2.5c-0.3-1.3-0.6-2.5-0.8-3.7
		C36.7,33,38.3,24.2,42.1,22z M36.2,85.6c-1-0.3-2-0.6-3-0.9c-5.9-2-10.8-4.7-14.2-7.5c-3-2.6-4.5-5.1-4.5-7.2
		c0-4.4,6.6-10.1,17.6-13.9c1.3-0.5,2.7-0.9,4.2-1.3c1.5,4.9,3.5,10.1,5.9,15.3C39.7,75.3,37.7,80.6,36.2,85.6z M64.3,109.2
		c-4.7,4.1-9.4,7-13.6,8.5c-3.7,1.3-6.7,1.4-8.5,0.3c-3.8-2.2-5.4-10.7-3.3-22.2c0.2-1.3,0.5-2.7,0.9-4c5,1.1,10.5,1.9,16.4,2.4
		c3.4,4.7,6.9,9.1,10.4,12.9C65.8,107.9,65,108.6,64.3,109.2z M70.2,103.4c-2.5-2.7-4.9-5.6-7.3-8.7c2.3,0.1,4.7,0.1,7.1,0.1
		c2.5,0,4.9-0.1,7.3-0.2C75,97.8,72.6,100.8,70.2,103.4z M101.7,110.6c-0.7,3.9-2.2,6.5-4,7.5c-3.8,2.2-12-0.7-20.8-8.3
		c-1-0.9-2-1.8-3.1-2.8c3.4-3.7,6.8-8.1,10.2-12.9c5.9-0.5,11.4-1.4,16.4-2.5c0.2,1,0.5,2,0.7,2.9
		C102.3,100.7,102.5,106.2,101.7,110.6z M106.1,84.7c-0.7,0.2-1.3,0.4-2,0.6c-1.5-4.9-3.6-10-6.1-15.4c2.4-5.2,4.4-10.3,5.9-15.2
		c1.2,0.4,2.4,0.7,3.6,1.1c11.2,3.9,18.1,9.6,18.1,14C125.5,74.6,118.1,80.7,106.1,84.7z M70,80.7c6,0,10.8-4.9,10.8-10.8
		c0-6-4.9-10.8-10.8-10.8c-6,0-10.8,4.9-10.8,10.8C59.2,75.9,64,80.7,70,80.7z M70,59.1c-6,0-10.8,4.9-10.8,10.8
		c0,6,4.9,10.8,10.8,10.8c6,0,10.8-4.9,10.8-10.8C80.8,63.9,76,59.1,70,59.1z M70,59.1c-6,0-10.8,4.9-10.8,10.8
		c0,6,4.9,10.8,10.8,10.8c6,0,10.8-4.9,10.8-10.8C80.8,63.9,76,59.1,70,59.1z M70,59.1c-6,0-10.8,4.9-10.8,10.8
		c0,6,4.9,10.8,10.8,10.8c6,0,10.8-4.9,10.8-10.8C80.8,63.9,76,59.1,70,59.1z M70,59.1c-6,0-10.8,4.9-10.8,10.8
		c0,6,4.9,10.8,10.8,10.8c6,0,10.8-4.9,10.8-10.8C80.8,63.9,76,59.1,70,59.1z M70,59.1c-6,0-10.8,4.9-10.8,10.8
		c0,6,4.9,10.8,10.8,10.8c6,0,10.8-4.9,10.8-10.8C80.8,63.9,76,59.1,70,59.1z M70,59.1c-6,0-10.8,4.9-10.8,10.8
		c0,6,4.9,10.8,10.8,10.8c6,0,10.8-4.9,10.8-10.8C80.8,63.9,76,59.1,70,59.1z M70,59.1c-6,0-10.8,4.9-10.8,10.8
		c0,6,4.9,10.8,10.8,10.8c6,0,10.8-4.9,10.8-10.8C80.8,63.9,76,59.1,70,59.1z M70,59.1c-6,0-10.8,4.9-10.8,10.8
		c0,6,4.9,10.8,10.8,10.8c6,0,10.8-4.9,10.8-10.8C80.8,63.9,76,59.1,70,59.1z M70,59.1c-6,0-10.8,4.9-10.8,10.8
		c0,6,4.9,10.8,10.8,10.8c6,0,10.8-4.9,10.8-10.8C80.8,63.9,76,59.1,70,59.1z M70,59.1c-6,0-10.8,4.9-10.8,10.8
		c0,6,4.9,10.8,10.8,10.8c6,0,10.8-4.9,10.8-10.8C80.8,63.9,76,59.1,70,59.1z M70,59.1c-6,0-10.8,4.9-10.8,10.8
		c0,6,4.9,10.8,10.8,10.8c6,0,10.8-4.9,10.8-10.8C80.8,63.9,76,59.1,70,59.1z M70,59.1c-6,0-10.8,4.9-10.8,10.8
		c0,6,4.9,10.8,10.8,10.8c6,0,10.8-4.9,10.8-10.8C80.8,63.9,76,59.1,70,59.1z M70,59.1c-6,0-10.8,4.9-10.8,10.8
		c0,6,4.9,10.8,10.8,10.8c6,0,10.8-4.9,10.8-10.8C80.8,63.9,76,59.1,70,59.1z M70,59.1c-6,0-10.8,4.9-10.8,10.8
		c0,6,4.9,10.8,10.8,10.8c6,0,10.8-4.9,10.8-10.8C80.8,63.9,76,59.1,70,59.1z M70,59.1c-6,0-10.8,4.9-10.8,10.8
		c0,6,4.9,10.8,10.8,10.8c6,0,10.8-4.9,10.8-10.8C80.8,63.9,76,59.1,70,59.1z M70,59.1c-6,0-10.8,4.9-10.8,10.8
		c0,6,4.9,10.8,10.8,10.8c6,0,10.8-4.9,10.8-10.8C80.8,63.9,76,59.1,70,59.1z M70,59.1c-6,0-10.8,4.9-10.8,10.8
		c0,6,4.9,10.8,10.8,10.8c6,0,10.8-4.9,10.8-10.8C80.8,63.9,76,59.1,70,59.1z M70,59.1c-6,0-10.8,4.9-10.8,10.8
		c0,6,4.9,10.8,10.8,10.8c6,0,10.8-4.9,10.8-10.8C80.8,63.9,76,59.1,70,59.1z M70,59.1c-6,0-10.8,4.9-10.8,10.8
		c0,6,4.9,10.8,10.8,10.8c6,0,10.8-4.9,10.8-10.8C80.8,63.9,76,59.1,70,59.1z M70,59.1c-6,0-10.8,4.9-10.8,10.8
		c0,6,4.9,10.8,10.8,10.8c6,0,10.8-4.9,10.8-10.8C80.8,63.9,76,59.1,70,59.1z M70,59.1c-6,0-10.8,4.9-10.8,10.8
		c0,6,4.9,10.8,10.8,10.8c6,0,10.8-4.9,10.8-10.8C80.8,63.9,76,59.1,70,59.1z M70,59.1c-6,0-10.8,4.9-10.8,10.8
		c0,6,4.9,10.8,10.8,10.8c6,0,10.8-4.9,10.8-10.8C80.8,63.9,76,59.1,70,59.1z M70,59.1c-6,0-10.8,4.9-10.8,10.8
		c0,6,4.9,10.8,10.8,10.8c6,0,10.8-4.9,10.8-10.8C80.8,63.9,76,59.1,70,59.1z M70,59.1c-6,0-10.8,4.9-10.8,10.8
		c0,6,4.9,10.8,10.8,10.8c6,0,10.8-4.9,10.8-10.8C80.8,63.9,76,59.1,70,59.1z M70,59.1c-6,0-10.8,4.9-10.8,10.8
		c0,6,4.9,10.8,10.8,10.8c6,0,10.8-4.9,10.8-10.8C80.8,63.9,76,59.1,70,59.1z M70,59.1c-6,0-10.8,4.9-10.8,10.8
		c0,6,4.9,10.8,10.8,10.8c6,0,10.8-4.9,10.8-10.8C80.8,63.9,76,59.1,70,59.1z"/>
	<path class="st1" d="M70,59.1c-6,0-10.8,4.9-10.8,10.8c0,6,4.9,10.8,10.8,10.8c6,0,10.8-4.9,10.8-10.8C80.8,63.9,76,59.1,70,59.1z
		 M70,59.1c-6,0-10.8,4.9-10.8,10.8c0,6,4.9,10.8,10.8,10.8c6,0,10.8-4.9,10.8-10.8C80.8,63.9,76,59.1,70,59.1z M70,59.1
		c-6,0-10.8,4.9-10.8,10.8c0,6,4.9,10.8,10.8,10.8c6,0,10.8-4.9,10.8-10.8C80.8,63.9,76,59.1,70,59.1z M70,59.1
		c-6,0-10.8,4.9-10.8,10.8c0,6,4.9,10.8,10.8,10.8c6,0,10.8-4.9,10.8-10.8C80.8,63.9,76,59.1,70,59.1z M70,59.1
		c-6,0-10.8,4.9-10.8,10.8c0,6,4.9,10.8,10.8,10.8c6,0,10.8-4.9,10.8-10.8C80.8,63.9,76,59.1,70,59.1z M70,59.1
		c-6,0-10.8,4.9-10.8,10.8c0,6,4.9,10.8,10.8,10.8c6,0,10.8-4.9,10.8-10.8C80.8,63.9,76,59.1,70,59.1z M70,59.1
		c-6,0-10.8,4.9-10.8,10.8c0,6,4.9,10.8,10.8,10.8c6,0,10.8-4.9,10.8-10.8C80.8,63.9,76,59.1,70,59.1z M70,59.1
		c-6,0-10.8,4.9-10.8,10.8c0,6,4.9,10.8,10.8,10.8c6,0,10.8-4.9,10.8-10.8C80.8,63.9,76,59.1,70,59.1z M70,59.1
		c-6,0-10.8,4.9-10.8,10.8c0,6,4.9,10.8,10.8,10.8c6,0,10.8-4.9,10.8-10.8C80.8,63.9,76,59.1,70,59.1z M70,59.1
		c-6,0-10.8,4.9-10.8,10.8c0,6,4.9,10.8,10.8,10.8c6,0,10.8-4.9,10.8-10.8C80.8,63.9,76,59.1,70,59.1z M70,59.1
		c-6,0-10.8,4.9-10.8,10.8c0,6,4.9,10.8,10.8,10.8c6,0,10.8-4.9,10.8-10.8C80.8,63.9,76,59.1,70,59.1z M70,59.1
		c-6,0-10.8,4.9-10.8,10.8c0,6,4.9,10.8,10.8,10.8c6,0,10.8-4.9,10.8-10.8C80.8,63.9,76,59.1,70,59.1z M70,59.1
		c-6,0-10.8,4.9-10.8,10.8c0,6,4.9,10.8,10.8,10.8c6,0,10.8-4.9,10.8-10.8C80.8,63.9,76,59.1,70,59.1z M70,59.1
		c-6,0-10.8,4.9-10.8,10.8c0,6,4.9,10.8,10.8,10.8c6,0,10.8-4.9,10.8-10.8C80.8,63.9,76,59.1,70,59.1z M70,59.1
		c-6,0-10.8,4.9-10.8,10.8c0,6,4.9,10.8,10.8,10.8c6,0,10.8-4.9,10.8-10.8C80.8,63.9,76,59.1,70,59.1z M70,59.1
		c-6,0-10.8,4.9-10.8,10.8c0,6,4.9,10.8,10.8,10.8c6,0,10.8-4.9,10.8-10.8C80.8,63.9,76,59.1,70,59.1z M70,59.1
		c-6,0-10.8,4.9-10.8,10.8c0,6,4.9,10.8,10.8,10.8c6,0,10.8-4.9,10.8-10.8C80.8,63.9,76,59.1,70,59.1z M70,59.1
		c-6,0-10.8,4.9-10.8,10.8c0,6,4.9,10.8,10.8,10.8c6,0,10.8-4.9,10.8-10.8C80.8,63.9,76,59.1,70,59.1z M70,59.1
		c-6,0-10.8,4.9-10.8,10.8c0,6,4.9,10.8,10.8,10.8c6,0,10.8-4.9,10.8-10.8C80.8,63.9,76,59.1,70,59.1z M70,59.1
		c-6,0-10.8,4.9-10.8,10.8c0,6,4.9,10.8,10.8,10.8c6,0,10.8-4.9,10.8-10.8C80.8,63.9,76,59.1,70,59.1z M70,59.1
		c-6,0-10.8,4.9-10.8,10.8c0,6,4.9,10.8,10.8,10.8c6,0,10.8-4.9,10.8-10.8C80.8,63.9,76,59.1,70,59.1z M70,59.1
		c-6,0-10.8,4.9-10.8,10.8c0,6,4.9,10.8,10.8,10.8c6,0,10.8-4.9,10.8-10.8C80.8,63.9,76,59.1,70,59.1z M70,59.1
		c-6,0-10.8,4.9-10.8,10.8c0,6,4.9,10.8,10.8,10.8c6,0,10.8-4.9,10.8-10.8C80.8,63.9,76,59.1,70,59.1z M70,59.1
		c-6,0-10.8,4.9-10.8,10.8c0,6,4.9,10.8,10.8,10.8c6,0,10.8-4.9,10.8-10.8C80.8,63.9,76,59.1,70,59.1z M70,59.1
		c-6,0-10.8,4.9-10.8,10.8c0,6,4.9,10.8,10.8,10.8c6,0,10.8-4.9,10.8-10.8C80.8,63.9,76,59.1,70,59.1z M70,59.1
		c-6,0-10.8,4.9-10.8,10.8c0,6,4.9,10.8,10.8,10.8c6,0,10.8-4.9,10.8-10.8C80.8,63.9,76,59.1,70,59.1z M109.1,51
		c-1.3-0.4-2.6-0.8-3.9-1.2c0.2-0.9,0.4-1.8,0.6-2.7c3-14.4,1-25.9-5.6-29.8c-6.3-3.7-16.7,0.2-27.2,9.3c-1,0.9-2,1.8-3,2.8
		c-0.7-0.6-1.3-1.3-2-1.9c-11-9.7-22-13.8-28.6-10c-6.3,3.7-8.2,14.5-5.5,28.2c0.3,1.3,0.6,2.7,0.9,4c-1.6,0.4-3.1,0.9-4.5,1.4
		C17.5,55.6,9.3,62.6,9.3,69.9c0,7.5,8.8,15.1,22.2,19.7c1.1,0.4,2.2,0.7,3.3,1c-0.4,1.5-0.7,2.9-1,4.3c-2.5,13.4-0.6,24,5.8,27.6
		c6.5,3.8,17.5-0.1,28.1-9.4c0.8-0.7,1.7-1.5,2.5-2.3c1.1,1.1,2.2,2.1,3.3,3c10.3,8.9,20.5,12.5,26.8,8.8c6.5-3.8,8.6-15.2,5.9-29.1
		c-0.2-1.1-0.5-2.1-0.7-3.2c0.8-0.2,1.5-0.5,2.3-0.7c13.9-4.6,23-12.1,23-19.7C130.7,62.6,122.3,55.5,109.1,51z M76.5,30.5
		c9-7.8,17.3-10.9,21.2-8.7c4.1,2.3,5.6,11.8,3.1,24.2c-0.2,0.8-0.3,1.6-0.5,2.4c-5-1.2-10.5-2-16.2-2.6c-3.3-4.8-6.8-9.1-10.3-12.8
		C74.6,32.2,75.6,31.3,76.5,30.5z M45.1,76.1c1.1,2.1,2.2,4.2,3.4,6.3c1.2,2.1,2.5,4.2,3.8,6.2c-4-0.4-7.7-1-11.2-1.8
		C42.3,83.4,43.6,79.8,45.1,76.1z M45.1,63.9c-1.5-3.6-2.8-7.1-3.9-10.5c3.5-0.8,7.2-1.4,11-1.9c-1.3,2-2.5,4-3.7,6.1
		C47.4,59.7,46.2,61.8,45.1,63.9z M47.9,70c1.6-3.3,3.3-6.5,5.2-9.8c1.9-3.3,3.8-6.4,5.9-9.4c3.6-0.3,7.3-0.4,11.1-0.4
		c3.8,0,7.5,0.1,11.1,0.4c2,3,4,6.1,5.9,9.3c1.9,3.3,3.7,6.5,5.2,9.7c-1.6,3.3-3.3,6.5-5.2,9.8c-1.9,3.3-3.8,6.4-5.8,9.4
		c-3.6,0.3-7.3,0.4-11.1,0.4c-3.8,0-7.5-0.1-11-0.3c-2.1-3-4-6.2-5.9-9.4C51.2,76.6,49.5,73.3,47.9,70z M91.4,82.4
		c1.2-2.1,2.4-4.3,3.5-6.4c1.6,3.7,3,7.3,4.1,10.7c-3.5,0.8-7.3,1.5-11.3,1.9C89,86.6,90.2,84.5,91.4,82.4z M94.9,63.9
		c-1.1-2.1-2.3-4.2-3.5-6.3c-1.2-2.1-2.4-4.1-3.7-6.1c3.9,0.5,7.6,1.1,11.1,1.9C97.8,56.8,96.5,60.3,94.9,63.9z M70.1,36.8
		c2.4,2.6,4.8,5.5,7.1,8.6c-2.4-0.1-4.8-0.2-7.2-0.2c-2.4,0-4.8,0.1-7.1,0.2C65.2,42.3,67.6,39.4,70.1,36.8z M42.1,22
		c4.1-2.3,13,1,22.5,9.4c0.6,0.5,1.2,1.1,1.8,1.7c-3.5,3.8-7,8.1-10.3,12.8c-5.7,0.5-11.2,1.4-16.2,2.5c-0.3-1.3-0.6-2.5-0.8-3.7
		C36.7,33,38.3,24.2,42.1,22z M36.2,85.6c-1-0.3-2-0.6-3-0.9c-5.9-2-10.8-4.7-14.2-7.5c-3-2.6-4.5-5.1-4.5-7.2
		c0-4.4,6.6-10.1,17.6-13.9c1.3-0.5,2.7-0.9,4.2-1.3c1.5,4.9,3.5,10.1,5.9,15.3C39.7,75.3,37.7,80.6,36.2,85.6z M64.3,109.2
		c-4.7,4.1-9.4,7-13.6,8.5c-3.7,1.3-6.7,1.4-8.5,0.3c-3.8-2.2-5.4-10.7-3.3-22.2c0.2-1.3,0.5-2.7,0.9-4c5,1.1,10.5,1.9,16.4,2.4
		c3.4,4.7,6.9,9.1,10.4,12.9C65.8,107.9,65,108.6,64.3,109.2z M70.2,103.4c-2.5-2.7-4.9-5.6-7.3-8.7c2.3,0.1,4.7,0.1,7.1,0.1
		c2.5,0,4.9-0.1,7.3-0.2C75,97.8,72.6,100.8,70.2,103.4z M101.7,110.6c-0.7,3.9-2.2,6.5-4,7.5c-3.8,2.2-12-0.7-20.8-8.3
		c-1-0.9-2-1.8-3.1-2.8c3.4-3.7,6.8-8.1,10.2-12.9c5.9-0.5,11.4-1.4,16.4-2.5c0.2,1,0.5,2,0.7,2.9
		C102.3,100.7,102.5,106.2,101.7,110.6z M106.1,84.7c-0.7,0.2-1.3,0.4-2,0.6c-1.5-4.9-3.6-10-6.1-15.4c2.4-5.2,4.4-10.3,5.9-15.2
		c1.2,0.4,2.4,0.7,3.6,1.1c11.2,3.9,18.1,9.6,18.1,14C125.5,74.6,118.1,80.7,106.1,84.7z M70,80.7c6,0,10.8-4.9,10.8-10.8
		c0-6-4.9-10.8-10.8-10.8c-6,0-10.8,4.9-10.8,10.8C59.2,75.9,64,80.7,70,80.7z M70,59.1c-6,0-10.8,4.9-10.8,10.8
		c0,6,4.9,10.8,10.8,10.8c6,0,10.8-4.9,10.8-10.8C80.8,63.9,76,59.1,70,59.1z M70,59.1c-6,0-10.8,4.9-10.8,10.8
		c0,6,4.9,10.8,10.8,10.8c6,0,10.8-4.9,10.8-10.8C80.8,63.9,76,59.1,70,59.1z M70,59.1c-6,0-10.8,4.9-10.8,10.8
		c0,6,4.9,10.8,10.8,10.8c6,0,10.8-4.9,10.8-10.8C80.8,63.9,76,59.1,70,59.1z M70,59.1c-6,0-10.8,4.9-10.8,10.8
		c0,6,4.9,10.8,10.8,10.8c6,0,10.8-4.9,10.8-10.8C80.8,63.9,76,59.1,70,59.1z M70,59.1c-6,0-10.8,4.9-10.8,10.8
		c0,6,4.9,10.8,10.8,10.8c6,0,10.8-4.9,10.8-10.8C80.8,63.9,76,59.1,70,59.1z M70,59.1c-6,0-10.8,4.9-10.8,10.8
		c0,6,4.9,10.8,10.8,10.8c6,0,10.8-4.9,10.8-10.8C80.8,63.9,76,59.1,70,59.1z M70,59.1c-6,0-10.8,4.9-10.8,10.8
		c0,6,4.9,10.8,10.8,10.8c6,0,10.8-4.9,10.8-10.8C80.8,63.9,76,59.1,70,59.1z M70,59.1c-6,0-10.8,4.9-10.8,10.8
		c0,6,4.9,10.8,10.8,10.8c6,0,10.8-4.9,10.8-10.8C80.8,63.9,76,59.1,70,59.1z M70,59.1c-6,0-10.8,4.9-10.8,10.8
		c0,6,4.9,10.8,10.8,10.8c6,0,10.8-4.9,10.8-10.8C80.8,63.9,76,59.1,70,59.1z M70,59.1c-6,0-10.8,4.9-10.8,10.8
		c0,6,4.9,10.8,10.8,10.8c6,0,10.8-4.9,10.8-10.8C80.8,63.9,76,59.1,70,59.1z M70,59.1c-6,0-10.8,4.9-10.8,10.8
		c0,6,4.9,10.8,10.8,10.8c6,0,10.8-4.9,10.8-10.8C80.8,63.9,76,59.1,70,59.1z M70,59.1c-6,0-10.8,4.9-10.8,10.8
		c0,6,4.9,10.8,10.8,10.8c6,0,10.8-4.9,10.8-10.8C80.8,63.9,76,59.1,70,59.1z M70,59.1c-6,0-10.8,4.9-10.8,10.8
		c0,6,4.9,10.8,10.8,10.8c6,0,10.8-4.9,10.8-10.8C80.8,63.9,76,59.1,70,59.1z M70,59.1c-6,0-10.8,4.9-10.8,10.8
		c0,6,4.9,10.8,10.8,10.8c6,0,10.8-4.9,10.8-10.8C80.8,63.9,76,59.1,70,59.1z M70,59.1c-6,0-10.8,4.9-10.8,10.8
		c0,6,4.9,10.8,10.8,10.8c6,0,10.8-4.9,10.8-10.8C80.8,63.9,76,59.1,70,59.1z M70,59.1c-6,0-10.8,4.9-10.8,10.8
		c0,6,4.9,10.8,10.8,10.8c6,0,10.8-4.9,10.8-10.8C80.8,63.9,76,59.1,70,59.1z M70,59.1c-6,0-10.8,4.9-10.8,10.8
		c0,6,4.9,10.8,10.8,10.8c6,0,10.8-4.9,10.8-10.8C80.8,63.9,76,59.1,70,59.1z M70,59.1c-6,0-10.8,4.9-10.8,10.8
		c0,6,4.9,10.8,10.8,10.8c6,0,10.8-4.9,10.8-10.8C80.8,63.9,76,59.1,70,59.1z M70,59.1c-6,0-10.8,4.9-10.8,10.8
		c0,6,4.9,10.8,10.8,10.8c6,0,10.8-4.9,10.8-10.8C80.8,63.9,76,59.1,70,59.1z M70,59.1c-6,0-10.8,4.9-10.8,10.8
		c0,6,4.9,10.8,10.8,10.8c6,0,10.8-4.9,10.8-10.8C80.8,63.9,76,59.1,70,59.1z M70,59.1c-6,0-10.8,4.9-10.8,10.8
		c0,6,4.9,10.8,10.8,10.8c6,0,10.8-4.9,10.8-10.8C80.8,63.9,76,59.1,70,59.1z M70,59.1c-6,0-10.8,4.9-10.8,10.8
		c0,6,4.9,10.8,10.8,10.8c6,0,10.8-4.9,10.8-10.8C80.8,63.9,76,59.1,70,59.1z M70,59.1c-6,0-10.8,4.9-10.8,10.8
		c0,6,4.9,10.8,10.8,10.8c6,0,10.8-4.9,10.8-10.8C80.8,63.9,76,59.1,70,59.1z M70,59.1c-6,0-10.8,4.9-10.8,10.8
		c0,6,4.9,10.8,10.8,10.8c6,0,10.8-4.9,10.8-10.8C80.8,63.9,76,59.1,70,59.1z M70,59.1c-6,0-10.8,4.9-10.8,10.8
		c0,6,4.9,10.8,10.8,10.8c6,0,10.8-4.9,10.8-10.8C80.8,63.9,76,59.1,70,59.1z M70,59.1c-6,0-10.8,4.9-10.8,10.8
		c0,6,4.9,10.8,10.8,10.8c6,0,10.8-4.9,10.8-10.8C80.8,63.9,76,59.1,70,59.1z"/>
	<path class="st0" d="M70,59.1c-6,0-10.8,4.9-10.8,10.8c0,6,4.9,10.8,10.8,10.8c6,0,10.8-4.9,10.8-10.8C80.8,63.9,76,59.1,70,59.1z"
		/>
	<ellipse class="st1" cx="70" cy="69.9" rx="10.8" ry="10.8"/>
</g>
</svg>
