<?xml version="1.0" encoding="utf-8"?>
<!-- Generator: Adobe Illustrator 21.0.0, SVG Export Plug-In . SVG Version: 6.00 Build 0)  -->
<svg version="1.1" id="Capa_1" xmlns="http://www.w3.org/2000/svg" xmlns:xlink="http://www.w3.org/1999/xlink" x="0px" y="0px"
	 viewBox="0 0 140 140" style="enable-background:new 0 0 140 140;" xml:space="preserve">
<style type="text/css">
	.st0{fill:#912626;}
	.st1{fill:#C6302B;}
	.st2{fill:#FFFFFF;}
	.st3{fill:#621B1C;}
	.st4{fill:#9A2928;}
</style>
<g>
	<path class="st0" d="M132.6,101.3c-7.2,3.8-44.8,19.2-52.8,23.4c-8,4.2-12.4,4.1-18.8,1.1c-6.3-3-46.3-19.2-53.5-22.6
		c-3.6-1.7-5.5-3.2-5.5-4.5V85c0,0,52-11.3,60.4-14.3c8.4-3,11.3-3.1,18.5-0.5c7.1,2.6,49.9,10.3,57,12.9c0,0,0,12.3,0,13.5
		C137.9,97.9,136.3,99.4,132.6,101.3"/>
	<path class="st1" d="M132.6,87.7c-7.2,3.8-44.8,19.2-52.8,23.4c-8,4.2-12.4,4.1-18.8,1.1c-6.3-3-46.3-19.2-53.5-22.6
		c-7.2-3.4-7.4-5.8-0.3-8.6c7.1-2.8,46.8-18.4,55.2-21.4c8.4-3,11.3-3.1,18.5-0.5c7.1,2.6,44.5,17.5,51.5,20.1
		C139.6,81.8,139.9,83.9,132.6,87.7"/>
	<path class="st0" d="M132.6,79.1c-7.2,3.8-44.8,19.2-52.8,23.4c-8,4.2-12.4,4.1-18.8,1.1c-6.3-3-46.3-19.2-53.5-22.6
		c-3.6-1.7-5.5-3.2-5.5-4.5V62.7c0,0,52-11.3,60.4-14.3c8.4-3,11.3-3.1,18.5-0.5c7.1,2.6,49.9,10.3,57,12.9c0,0,0,12.3,0,13.5
		C137.9,75.7,136.3,77.2,132.6,79.1"/>
	<path class="st1" d="M132.6,65.5c-7.2,3.8-44.8,19.2-52.8,23.4C71.8,93,67.4,93,61,90c-6.3-3-46.3-19.2-53.5-22.6
		c-7.2-3.4-7.4-5.8-0.3-8.6c7.1-2.8,46.8-18.4,55.2-21.4c8.4-3,11.3-3.1,18.5-0.5c7.1,2.6,44.5,17.5,51.5,20.1
		C139.6,59.6,139.9,61.7,132.6,65.5L132.6,65.5"/>
	<path class="st0" d="M132.6,56.1c-7.2,3.8-44.8,19.2-52.8,23.4c-8,4.2-12.4,4.1-18.8,1.1c-6.3-3-46.3-19.2-53.5-22.6
		c-3.6-1.7-5.5-3.2-5.5-4.5V39.7c0,0,52-11.3,60.4-14.3c8.4-3,11.3-3.1,18.5-0.5c7.1,2.6,49.9,10.3,57,12.9c0,0,0,12.3,0,13.5
		C137.9,52.7,136.3,54.2,132.6,56.1"/>
	<path class="st1" d="M132.6,42.4c-7.2,3.8-44.8,19.2-52.8,23.4c-8,4.2-12.4,4.1-18.8,1.1c-6.3-3-46.3-19.2-53.5-22.6
		c-7.2-3.4-7.4-5.8-0.3-8.6c7.1-2.8,46.8-18.4,55.2-21.4c8.4-3,11.3-3.1,18.5-0.5c7.1,2.6,44.5,17.5,51.5,20.1
		C139.6,36.5,139.9,38.7,132.6,42.4"/>
	<path class="st2" d="M86.6,29.1l-11.7,1.2l-2.6,6.3l-4.2-7l-13.5-1.2l10.1-3.6l-3-5.6l9.4,3.7l8.9-2.9l-2.4,5.8L86.6,29.1"/>
	<path class="st2" d="M71.6,59.6l-21.8-9L81,45.8L71.6,59.6"/>
	<path class="st2" d="M41.4,32.6c9.2,0,16.7,2.9,16.7,6.5c0,3.6-7.5,6.5-16.7,6.5c-9.2,0-16.7-2.9-16.7-6.5
		C24.7,35.5,32.2,32.6,41.4,32.6"/>
	<path class="st3" d="M100.4,30.8l18.5,7.3l-18.5,7.3L100.4,30.8"/>
	<path class="st4" d="M80,38.9l20.5-8.1l0,14.6l-2,0.8L80,38.9"/>
</g>
</svg>
