<?xml version="1.0" encoding="utf-8"?>
<!-- Generator: Adobe Illustrator 21.0.0, SVG Export Plug-In . SVG Version: 6.00 Build 0)  -->
<svg version="1.1" id="Capa_1" xmlns="http://www.w3.org/2000/svg" xmlns:xlink="http://www.w3.org/1999/xlink" x="0px" y="0px"
	 viewBox="0 0 140 140" style="enable-background:new 0 0 140 140;" xml:space="preserve">
<style type="text/css">
	.st0{fill:#F05138;}
	.st1{fill:#FFFFFF;}
</style>
<g>
	<path class="st0" d="M132,42.4c0-1.3,0-2.5,0-3.7c-0.1-2.7-0.2-5.5-0.7-8.2c-0.5-2.7-1.3-5.3-2.6-7.7c-1.3-2.5-2.8-4.7-4.8-6.6
		c-2-2-4.2-3.5-6.6-4.8c-2.5-1.3-5-2.1-7.7-2.6c-2.7-0.5-5.4-0.7-8.2-0.7c-1.3,0-2.5,0-3.7,0c-1.5,0-2.9,0-4.4,0H60.3H46.8
		c-1.5,0-2.9,0-4.4,0c-1.3,0-2.5,0-3.7,0c-0.7,0-1.4,0-2,0.1c-2,0.1-4.1,0.2-6.1,0.6s-4,0.9-5.9,1.6c-0.6,0.2-1.3,0.6-1.9,0.8
		c-1.9,0.9-3.5,2.1-5.2,3.4c-0.5,0.5-1.1,0.9-1.5,1.4c-2,2-3.5,4.2-4.8,6.6c-1.3,2.5-2.1,5-2.6,7.7C8.2,33,8.1,35.7,8,38.5
		c0,1.3,0,2.5,0,3.7c0,1.5,0,2.9,0,4.4V67v26.2c0,1.5,0,2.9,0,4.4c0,1.3,0,2.5,0,3.7c0.1,2.7,0.2,5.5,0.7,8.2
		c0.5,2.7,1.3,5.3,2.6,7.7c1.3,2.5,2.8,4.7,4.8,6.6c2,2,4.2,3.5,6.6,4.8c2.5,1.3,5,2.1,7.7,2.6c2.7,0.5,5.4,0.7,8.2,0.7
		c1.3,0,2.5,0,3.7,0c1.5,0,2.9,0,4.4,0h46.5c1.5,0,2.9,0,4.4,0c1.3,0,2.5,0,3.7,0c2.7-0.1,5.5-0.2,8.2-0.7c2.7-0.5,5.3-1.3,7.7-2.6
		s4.7-2.8,6.6-4.8c2-2,3.5-4.2,4.8-6.6c1.3-2.5,2.1-5,2.6-7.7c0.5-2.7,0.7-5.4,0.7-8.2c0-1.3,0-2.5,0-3.7c0-1.5,0-2.9,0-4.4V46.7
		C132,45.3,132,43.9,132,42.4z"/>
	<path class="st1" d="M106.1,84.6c0.1-0.5,0.2-0.9,0.4-1.4c5.2-20.5-7.4-44.8-28.7-57.6c9.4,12.6,13.5,28,9.8,41.3
		c-0.4,1.2-0.7,2.3-1.2,3.5c-0.5-0.4-1.1-0.7-1.9-1.1c0,0-21.2-13.1-44.1-36.2C39.8,32.6,52.7,51.6,67.2,67
		c-6.9-3.9-26-17.8-38.2-28.8c1.5,2.5,3.3,4.9,5.2,7.1C44.3,58.2,57.5,74,73.3,86.2c-11.1,6.8-26.8,7.4-42.4,0
		c-3.9-1.8-7.5-4-10.9-6.4c6.6,10.5,16.7,19.7,29.2,25.1c14.8,6.3,29.5,6,40.4,0.1l0,0c0,0,0.1,0,0.1-0.1c0.5-0.2,0.9-0.6,1.4-0.8
		c5.3-2.7,15.6-5.4,21.2,5.4C114,111.8,116.9,97.8,106.1,84.6L106.1,84.6z"/>
</g>
</svg>
