<?xml version="1.0" encoding="utf-8"?>
<!-- Generator: Adobe Illustrator 21.0.0, SVG Export Plug-In . SVG Version: 6.00 Build 0)  -->
<svg version="1.1" id="Capa_1" xmlns="http://www.w3.org/2000/svg" xmlns:xlink="http://www.w3.org/1999/xlink" x="0px" y="0px"
	 viewBox="0 0 200 200" style="enable-background:new 0 0 200 200;" xml:space="preserve">
<style type="text/css">
	.st0{fill:#2C77D1;}
</style>
<g>
	<g>
		<g>
			<ellipse class="st0" cx="52.3" cy="37" rx="13.3" ry="15"/>
			<polygon class="st0" points="74.4,78.3 30.3,78.3 24.6,55.6 42.5,55.6 52.3,62.6 63.1,55.6 80.1,55.6 			"/>
		</g>
		<g>
			<g>
				<path d="M48.4,51.3c-8,0-14.4-7.3-14.4-16.2c0-8.9,6.5-16.2,14.4-16.2s14.4,7.3,14.4,16.2C62.9,44,56.4,51.3,48.4,51.3z
					 M48.4,21.2c-6.7,0-12.1,6.2-12.1,13.9c0,7.6,5.4,13.9,12.1,13.9s12.1-6.2,12.1-13.9C60.5,27.4,55.1,21.2,48.4,21.2z"/>
			</g>
			<g>
				<path d="M71.4,77.5H25.5l-6.3-25h19.7l9.5,6.8l10.4-6.8h18.8L71.4,77.5z M27.3,75.2h42.2l5.1-20.3H59.5l-11.1,7.2l-10.2-7.2h-16
					L27.3,75.2z"/>
			</g>
		</g>
	</g>
	<g>
		<g>
			<ellipse class="st0" cx="136.9" cy="48.6" rx="13.3" ry="15"/>
			<polygon class="st0" points="158.9,89.9 114.9,89.9 109.2,67.2 127.1,67.2 136.9,74.2 147.7,67.2 164.6,67.2 			"/>
		</g>
		<g>
			<g>
				<path d="M133,62.8c-8,0-14.4-7.3-14.4-16.2c0-8.9,6.5-16.2,14.4-16.2s14.4,7.3,14.4,16.2C147.4,55.6,140.9,62.8,133,62.8z
					 M133,32.7c-6.7,0-12.1,6.2-12.1,13.9c0,7.6,5.4,13.9,12.1,13.9s12.1-6.2,12.1-13.9C145.1,39,139.7,32.7,133,32.7z"/>
			</g>
			<g>
				<path d="M155.9,89.1H110l-6.3-25h19.7l9.5,6.8l10.4-6.8h18.8L155.9,89.1z M111.9,86.7h42.2l5.1-20.3h-15.1L133,73.6l-10.2-7.2
					h-16L111.9,86.7z"/>
			</g>
		</g>
	</g>
	<g>
		<g>
			<ellipse class="st0" cx="55" cy="113.5" rx="13.3" ry="15"/>
			<polygon class="st0" points="77,154.8 33,154.8 27.3,132.1 45.2,132.1 55,139.1 65.8,132.1 82.7,132.1 			"/>
		</g>
		<g>
			<g>
				<path d="M51.1,127.7c-8,0-14.4-7.3-14.4-16.2c0-8.9,6.5-16.2,14.4-16.2s14.4,7.3,14.4,16.2C65.5,120.4,59,127.7,51.1,127.7z
					 M51.1,97.6c-6.7,0-12.1,6.2-12.1,13.9c0,7.6,5.4,13.9,12.1,13.9s12.1-6.2,12.1-13.9C63.2,103.9,57.8,97.6,51.1,97.6z"/>
			</g>
			<g>
				<path d="M74,154H28.1l-6.3-25h19.7l9.5,6.8l10.4-6.8h18.8L74,154z M30,151.6h42.2l5.1-20.3H62.2L51,138.5l-10.2-7.2h-16
					L30,151.6z"/>
			</g>
		</g>
	</g>
	<g>
		<g>
			<ellipse class="st0" cx="126.7" cy="143.2" rx="13.3" ry="15"/>
			<polygon class="st0" points="148.7,184.5 104.6,184.5 98.9,161.8 116.8,161.8 126.7,168.8 137.4,161.8 154.4,161.8 			"/>
		</g>
		<g>
			<g>
				<path d="M122.7,157.4c-8,0-14.4-7.3-14.4-16.2c0-8.9,6.5-16.2,14.4-16.2s14.4,7.3,14.4,16.2
					C137.2,150.2,130.7,157.4,122.7,157.4z M122.7,127.4c-6.7,0-12.1,6.2-12.1,13.9c0,7.6,5.4,13.9,12.1,13.9
					c6.7,0,12.1-6.2,12.1-13.9C134.9,133.6,129.4,127.4,122.7,127.4z"/>
			</g>
			<g>
				<path d="M145.7,183.7H99.8l-6.3-25h19.7l9.5,6.8l10.4-6.8H152L145.7,183.7z M101.6,181.3h42.2L149,161h-15.1l-11.1,7.2
					l-10.2-7.2h-16L101.6,181.3z"/>
			</g>
		</g>
	</g>
	<path d="M134.2,111.8c-27.4,0-49.6-22.3-49.6-49.6c0-27.4,22.3-49.6,49.6-49.6c27.4,0,49.6,22.3,49.6,49.6
		C183.8,89.5,161.6,111.8,134.2,111.8z M134.2,18.5c-24,0-43.6,19.6-43.6,43.6c0,24,19.6,43.6,43.6,43.6c24,0,43.6-19.6,43.6-43.6
		C177.8,38.1,158.2,18.5,134.2,18.5z"/>
</g>
</svg>
