<?xml version="1.0" encoding="utf-8"?>
<!-- Generator: Adobe Illustrator 21.0.0, SVG Export Plug-In . SVG Version: 6.00 Build 0)  -->
<svg version="1.1" id="Capa_1" xmlns="http://www.w3.org/2000/svg" xmlns:xlink="http://www.w3.org/1999/xlink" x="0px" y="0px"
	 viewBox="0 0 200 200" style="enable-background:new 0 0 200 200;" xml:space="preserve">
<style type="text/css">
	.st0{fill:#2C77D1;}
</style>
<g>
	<g>
		<ellipse class="st0" cx="107" cy="70.3" rx="34.1" ry="38.7"/>
		<polygon class="st0" points="163.6,176.4 50.3,176.4 35.7,118.1 81.6,118.1 107,136.1 134.6,118.1 178.3,118.1 		"/>
	</g>
	<g>
		<path d="M96.9,106.9c-20.5,0-37.1-18.7-37.1-41.7s16.7-41.7,37.1-41.7c20.5,0,37.1,18.7,37.1,41.7S117.3,106.9,96.9,106.9z
			 M96.9,29.6c-17.2,0-31.1,16-31.1,35.7s14,35.7,31.1,35.7c17.2,0,31.1-16,31.1-35.7S114,29.6,96.9,29.6z"/>
		<path d="M155.9,174.4h-118l-16.2-64.3h50.8l24.5,17.4l26.7-17.4H172L155.9,174.4z M42.5,168.4h108.7l13.1-52.3h-38.9l-28.6,18.6
			l-26.2-18.6H29.4L42.5,168.4z"/>
	</g>
</g>
</svg>
