<?xml version="1.0" encoding="utf-8"?>
<!-- Generator: Adobe Illustrator 21.0.0, SVG Export Plug-In . SVG Version: 6.00 Build 0)  -->
<svg version="1.1" id="Capa_1" xmlns="http://www.w3.org/2000/svg" xmlns:xlink="http://www.w3.org/1999/xlink" x="0px" y="0px"
	 viewBox="0 0 200 200" style="enable-background:new 0 0 200 200;" xml:space="preserve">
<style type="text/css">
	.st0{fill:#2C77D1;}
</style>
<g>
	<g>
		<g>
			<g>
				<ellipse class="st0" cx="66" cy="105.8" rx="13.3" ry="15"/>
				<polygon class="st0" points="88.1,147.1 44,147.1 38.3,124.4 56.2,124.4 66,131.4 76.8,124.4 93.8,124.4 				"/>
			</g>
			<g>
				<g>
					<path d="M62.1,120c-8,0-14.4-7.3-14.4-16.2c0-8.9,6.5-16.2,14.4-16.2s14.4,7.3,14.4,16.2C76.6,112.7,70.1,120,62.1,120z
						 M62.1,89.9c-6.7,0-12.1,6.2-12.1,13.9c0,7.6,5.4,13.9,12.1,13.9s12.1-6.2,12.1-13.9C74.2,96.2,68.8,89.9,62.1,89.9z"/>
				</g>
				<g>
					<path d="M85.1,146.3H39.2l-6.3-25h19.7l9.5,6.8l10.4-6.8h18.8L85.1,146.3z M41,143.9h42.2l5.1-20.3H73.2l-11.1,7.2l-10.2-7.2
						h-16L41,143.9z"/>
				</g>
			</g>
		</g>
		<g>
			<g>
				<ellipse class="st0" cx="139.4" cy="105.8" rx="13.3" ry="15"/>
				<polygon class="st0" points="161.4,147.1 117.3,147.1 111.7,124.4 129.5,124.4 139.4,131.4 150.1,124.4 167.1,124.4 				"/>
			</g>
			<g>
				<g>
					<path d="M135.4,120c-8,0-14.4-7.3-14.4-16.2c0-8.9,6.5-16.2,14.4-16.2s14.4,7.3,14.4,16.2C149.9,112.7,143.4,120,135.4,120z
						 M135.4,89.9c-6.7,0-12.1,6.2-12.1,13.9c0,7.6,5.4,13.9,12.1,13.9s12.1-6.2,12.1-13.9C147.6,96.2,142.1,89.9,135.4,89.9z"/>
				</g>
				<g>
					<path d="M158.4,146.3h-45.9l-6.3-25H126l9.5,6.8l10.4-6.8h18.8L158.4,146.3z M114.3,143.9h42.2l5.1-20.3h-15.1l-11.1,7.2
						l-10.2-7.2h-16L114.3,143.9z"/>
				</g>
			</g>
		</g>
	</g>
	<rect x="21.7" y="144.3" width="156.7" height="11.3"/>
	<rect x="3.7" y="165.4" transform="matrix(-1.836970e-16 1 -1 -1.836970e-16 191.6599 143.707)" width="40.6" height="4.6"/>
	<rect x="155.7" y="165.4" transform="matrix(-1.836970e-16 1 -1 -1.836970e-16 343.707 -8.3402)" width="40.6" height="4.6"/>
	<g>
		<g>
			<g>
				<ellipse class="st0" cx="66" cy="30.2" rx="13.3" ry="15"/>
				<polygon class="st0" points="88.1,71.5 44,71.5 38.3,48.8 56.2,48.8 66,55.8 76.8,48.8 93.8,48.8 				"/>
			</g>
			<g>
				<g>
					<path d="M62.1,44.4c-8,0-14.4-7.3-14.4-16.2c0-8.9,6.5-16.2,14.4-16.2s14.4,7.3,14.4,16.2C76.6,37.1,70.1,44.4,62.1,44.4z
						 M62.1,14.3c-6.7,0-12.1,6.2-12.1,13.9c0,7.6,5.4,13.9,12.1,13.9s12.1-6.2,12.1-13.9C74.2,20.6,68.8,14.3,62.1,14.3z"/>
				</g>
				<g>
					<path d="M85.1,70.7H39.2l-6.3-25h19.7l9.5,6.8l10.4-6.8h18.8L85.1,70.7z M41,68.3h42.2L88.3,48H73.2l-11.1,7.2L51.9,48h-16
						L41,68.3z"/>
				</g>
			</g>
		</g>
		<g>
			<g>
				<ellipse class="st0" cx="139.4" cy="30.2" rx="13.3" ry="15"/>
				<polygon class="st0" points="161.4,71.5 117.3,71.5 111.7,48.8 129.5,48.8 139.4,55.8 150.1,48.8 167.1,48.8 				"/>
			</g>
			<g>
				<g>
					<path d="M135.4,44.4c-8,0-14.4-7.3-14.4-16.2c0-8.9,6.5-16.2,14.4-16.2s14.4,7.3,14.4,16.2C149.9,37.1,143.4,44.4,135.4,44.4z
						 M135.4,14.3c-6.7,0-12.1,6.2-12.1,13.9c0,7.6,5.4,13.9,12.1,13.9s12.1-6.2,12.1-13.9C147.6,20.6,142.1,14.3,135.4,14.3z"/>
				</g>
				<g>
					<path d="M158.4,70.7h-45.9l-6.3-25H126l9.5,6.8l10.4-6.8h18.8L158.4,70.7z M114.3,68.3h42.2l5.1-20.3h-15.1l-11.1,7.2L125.2,48
						h-16L114.3,68.3z"/>
				</g>
			</g>
		</g>
	</g>
	<rect x="21.7" y="68.7" width="156.7" height="11.3"/>
	<rect x="3.7" y="89.8" transform="matrix(-1.836970e-16 1 -1 -1.836970e-16 116.0604 68.1076)" width="40.6" height="4.6"/>
	<rect x="155.7" y="89.8" transform="matrix(-1.836970e-16 1 -1 -1.836970e-16 268.1076 -83.9396)" width="40.6" height="4.6"/>
</g>
</svg>
